<svg width="28" height="28" viewBox="0 0 28 28" fill="none" xmlns="http://www.w3.org/2000/svg">
<path d="M14 8.96875C13.0049 8.96875 12.0322 9.26383 11.2048 9.81667C10.3774 10.3695 9.73253 11.1553 9.35173 12.0746C8.97093 12.994 8.87129 14.0056 9.06542 14.9815C9.25956 15.9575 9.73874 16.854 10.4424 17.5576C11.146 18.2613 12.0425 18.7404 13.0185 18.9346C13.9944 19.1287 15.006 19.0291 15.9254 18.6483C16.8447 18.2675 17.6305 17.6226 18.1833 16.7952C18.7362 15.9678 19.0312 14.9951 19.0312 14C19.0295 12.6662 18.4989 11.3875 17.5557 10.4443C16.6125 9.50112 15.3338 8.97049 14 8.96875ZM14 17.7188C13.2645 17.7188 12.5455 17.5006 11.934 17.092C11.3224 16.6834 10.8458 16.1026 10.5643 15.4231C10.2829 14.7436 10.2092 13.9959 10.3527 13.2745C10.4962 12.5531 10.8504 11.8905 11.3704 11.3704C11.8905 10.8504 12.5531 10.4962 13.2745 10.3527C13.9959 10.2092 14.7436 10.2829 15.4231 10.5643C16.1026 10.8458 16.6834 11.3224 17.092 11.934C17.5006 12.5455 17.7188 13.2645 17.7188 14C17.7188 14.9863 17.327 15.9322 16.6296 16.6296C15.9322 17.327 14.9863 17.7188 14 17.7188ZM19.25 2.84375H8.75C7.1841 2.84549 5.68283 3.46831 4.57557 4.57557C3.46831 5.68283 2.84549 7.1841 2.84375 8.75V19.25C2.84549 20.8159 3.46831 22.3172 4.57557 23.4244C5.68283 24.5317 7.1841 25.1545 8.75 25.1562H19.25C20.8159 25.1545 22.3172 24.5317 23.4244 23.4244C24.5317 22.3172 25.1545 20.8159 25.1562 19.25V8.75C25.1545 7.1841 24.5317 5.68283 23.4244 4.57557C22.3172 3.46831 20.8159 2.84549 19.25 2.84375ZM23.8438 19.25C23.8437 20.4683 23.3598 21.6368 22.4983 22.4983C21.6368 23.3598 20.4683 23.8438 19.25 23.8438H8.75C7.53166 23.8437 6.36322 23.3598 5.50173 22.4983C4.64023 21.6368 4.15625 20.4683 4.15625 19.25V8.75C4.15625 7.53166 4.64023 6.36322 5.50173 5.50173C6.36322 4.64023 7.53166 4.15625 8.75 4.15625H19.25C20.4683 4.15625 21.6368 4.64023 22.4983 5.50173C23.3598 6.36322 23.8438 7.53166 23.8438 8.75V19.25ZM20.7812 8.3125C20.7812 8.52882 20.7171 8.74029 20.5969 8.92015C20.4767 9.10002 20.3059 9.24021 20.1061 9.32299C19.9062 9.40578 19.6863 9.42744 19.4741 9.38523C19.262 9.34303 19.0671 9.23886 18.9141 9.0859C18.7611 8.93293 18.657 8.73805 18.6148 8.52588C18.5726 8.31371 18.5942 8.0938 18.677 7.89394C18.7598 7.69408 18.9 7.52326 19.0798 7.40308C19.2597 7.2829 19.4712 7.21875 19.6875 7.21875C19.9776 7.21875 20.2558 7.33398 20.4609 7.5391C20.666 7.74422 20.7812 8.02242 20.7812 8.3125Z" fill="#9A8970"/>
</svg>
