<svg width="16" height="16" viewBox="0 0 16 16" fill="none" xmlns="http://www.w3.org/2000/svg">
<path d="M8 5.125C7.43138 5.125 6.87553 5.29362 6.40274 5.60952C5.92994 5.92543 5.56145 6.37445 5.34385 6.89979C5.12624 7.42512 5.06931 8.00319 5.18024 8.56088C5.29118 9.11858 5.56499 9.63086 5.96707 10.0329C6.36914 10.435 6.88142 10.7088 7.43912 10.8198C7.99681 10.9307 8.57488 10.8738 9.10021 10.6562C9.62555 10.4386 10.0746 10.0701 10.3905 9.59726C10.7064 9.12447 10.875 8.56862 10.875 8C10.874 7.23781 10.5708 6.50712 10.0318 5.96816C9.49288 5.42921 8.76219 5.12599 8 5.125ZM8 10.125C7.57971 10.125 7.16887 10.0004 6.81941 9.76687C6.46996 9.53338 6.19759 9.20149 6.03676 8.8132C5.87592 8.42491 5.83384 7.99764 5.91583 7.58543C5.99782 7.17322 6.20021 6.79458 6.4974 6.4974C6.79458 6.20021 7.17322 5.99782 7.58543 5.91583C7.99764 5.83384 8.42491 5.87592 8.8132 6.03676C9.20149 6.19759 9.53338 6.46996 9.76687 6.81941C10.0004 7.16887 10.125 7.57971 10.125 8C10.125 8.56359 9.90112 9.10409 9.5026 9.5026C9.10409 9.90112 8.56359 10.125 8 10.125ZM11 1.625H5C4.1052 1.62599 3.24733 1.98189 2.61461 2.61461C1.98189 3.24733 1.62599 4.1052 1.625 5V11C1.62599 11.8948 1.98189 12.7527 2.61461 13.3854C3.24733 14.0181 4.1052 14.374 5 14.375H11C11.8948 14.374 12.7527 14.0181 13.3854 13.3854C14.0181 12.7527 14.374 11.8948 14.375 11V5C14.374 4.1052 14.0181 3.24733 13.3854 2.61461C12.7527 1.98189 11.8948 1.62599 11 1.625ZM13.625 11C13.625 11.6962 13.3484 12.3639 12.8562 12.8562C12.3639 13.3484 11.6962 13.625 11 13.625H5C4.30381 13.625 3.63613 13.3484 3.14384 12.8562C2.65156 12.3639 2.375 11.6962 2.375 11V5C2.375 4.30381 2.65156 3.63613 3.14384 3.14384C3.63613 2.65156 4.30381 2.375 5 2.375H11C11.6962 2.375 12.3639 2.65156 12.8562 3.14384C13.3484 3.63613 13.625 4.30381 13.625 5V11ZM11.875 4.75C11.875 4.87361 11.8383 4.99445 11.7697 5.09723C11.701 5.20001 11.6034 5.28012 11.4892 5.32742C11.375 5.37473 11.2493 5.38711 11.1281 5.36299C11.0068 5.33888 10.8955 5.27935 10.8081 5.19194C10.7206 5.10453 10.6611 4.99317 10.637 4.87193C10.6129 4.75069 10.6253 4.62503 10.6726 4.51082C10.7199 4.39662 10.8 4.29901 10.9028 4.23033C11.0055 4.16166 11.1264 4.125 11.25 4.125C11.4158 4.125 11.5747 4.19085 11.6919 4.30806C11.8092 4.42527 11.875 4.58424 11.875 4.75Z" fill="#9A8970"/>
</svg>
