<svg width="272" height="100" viewBox="0 0 272 100" fill="none" xmlns="http://www.w3.org/2000/svg">
<g clip-path="url(#clip0_2_641)">
<path d="M217.738 71.1361H197.414V21.6416H217.738V71.1361Z" fill="#3C3734"/>
<path d="M160.356 43.9362C159.126 31.4763 149.033 21.5675 136.342 20.3597V43.9362H160.356Z" fill="#3C3734"/>
<path d="M106.942 46.5119C106.942 60.155 117.537 71.3701 131.095 72.6642V20.3474C117.537 21.6415 106.942 32.8566 106.942 46.4996V46.5119Z" fill="#3C3734"/>
<path d="M136.342 67.4757V72.6642C149.033 71.4564 159.126 61.5477 160.356 49.0878H155.071C153.879 58.6884 146.108 66.3048 136.342 67.4757Z" fill="#3C3734"/>
<path d="M53.4144 43.9362C52.1842 31.4763 42.0913 21.5675 29.3999 20.3597V43.9362H53.4144Z" fill="#3C3734"/>
<path d="M0 46.5119C0 60.155 10.595 71.3701 24.1526 72.6642V20.3474C10.595 21.6415 0 32.8566 0 46.5119Z" fill="#3C3734"/>
<path d="M29.3999 67.4757V72.6642C42.0913 71.4564 52.1842 61.5477 53.4144 49.0878H48.1295C46.9369 58.6884 39.1664 66.3048 29.3999 67.4757Z" fill="#3C3734"/>
<path d="M106.289 21.7278H82.5884L94.4513 51.7991L106.289 21.7278Z" fill="#3C3734"/>
<path d="M53.8663 21.7278L74.4287 71.136H86.8439L91.6644 58.8979L76.9896 21.7278H53.8663Z" fill="#3C3734"/>
<path d="M207.582 18.3386C213.496 18.3386 218.29 14.2334 218.29 9.1693C218.29 4.10523 213.496 0 207.582 0C201.668 0 196.874 4.10523 196.874 9.1693C196.874 14.2334 201.668 18.3386 207.582 18.3386Z" fill="#3C3734"/>
<path d="M236.844 41.6316C242.758 41.6316 247.552 37.5263 247.552 32.4623C247.552 27.3982 242.758 23.293 236.844 23.293C230.93 23.293 226.136 27.3982 226.136 32.4623C226.136 37.5263 230.93 41.6316 236.844 41.6316Z" fill="#3C3734"/>
<path d="M251.029 21.6416V56.5194V71.1238H271.353V39.0805C271.353 29.4552 262.252 21.6663 251.029 21.6416Z" fill="#3C3734"/>
<path d="M187.333 0H167.411V71.2223H187.333V0Z" fill="#3C3734"/>
<path d="M237.723 44.688C230.291 44.688 224.265 50.6037 224.265 57.8997C224.265 65.1957 230.291 71.1113 237.723 71.1113C238.036 71.1113 238.338 71.1113 238.651 71.0744H246.51V67.907V47.88V44.6757H237.735L237.723 44.688Z" fill="#3C3734"/>
</g>
<path d="M8.84358 98.4758C8.84358 98.8761 8.50944 99.078 7.84114 99.078C7.09628 99.078 6.51152 98.7682 6.09035 98.1452C5.90936 97.8772 5.79101 97.6196 5.7388 97.3724C5.68659 97.1253 5.60654 96.4918 5.50212 95.479C5.44643 94.8663 5.24803 94.4347 4.91388 94.1806C4.57973 93.9266 4.03326 93.7908 3.27795 93.7734V98.2913C3.27795 98.4828 3.4311 98.6011 3.7374 98.6499C3.82442 98.6603 4.04371 98.6707 4.39526 98.6777C4.52056 98.6777 4.58321 98.716 4.58321 98.7926C4.58321 98.8796 4.50316 98.9214 4.33956 98.9214H0.973732C0.764891 98.9214 0.656989 98.8796 0.656989 98.7926C0.656989 98.7264 0.796217 98.6882 1.07119 98.6777C1.5202 98.6673 1.76385 98.6116 1.80214 98.5072C1.84043 98.4584 1.86131 98.2739 1.86131 97.9468V90.0317C1.86131 89.6488 1.81954 89.4191 1.73949 89.3425C1.65943 89.2659 1.4123 89.2241 1.00158 89.2137C0.76141 89.2137 0.643066 89.1719 0.643066 89.0849C0.643066 88.9909 0.719642 88.9422 0.872792 88.9422C0.900638 88.9422 0.945887 88.9457 1.00158 88.9561L2.909 88.9979C3.10044 88.9979 3.36845 88.9909 3.71304 88.977C4.09592 88.9526 4.36393 88.9387 4.51708 88.9387C5.40466 88.9387 6.11124 89.1371 6.63334 89.5339C7.15545 89.9307 7.41302 90.4667 7.41302 91.1455C7.41302 91.8242 7.145 92.3672 6.60898 92.8023C6.07295 93.2374 5.34897 93.4915 4.43006 93.5681C4.34305 93.5785 4.29432 93.5924 4.28735 93.6098C4.28735 93.6481 4.33608 93.669 4.43006 93.669C5.4325 93.843 6.12516 94.1946 6.50108 94.7271C6.87699 95.2597 7.13108 96.2203 7.25291 97.6091C7.32948 98.3958 7.5975 98.7891 8.05695 98.7891C8.19966 98.7891 8.27275 98.7612 8.27275 98.7021C8.27275 98.6916 8.26927 98.6812 8.25883 98.6742C8.2101 98.5698 8.18573 98.4828 8.18573 98.4167C8.18573 98.2148 8.29015 98.1138 8.50248 98.1138C8.7322 98.1138 8.84706 98.2322 8.84706 98.4724L8.84358 98.4758ZM5.87455 91.2917C5.87455 89.9238 5.28283 89.2415 4.09592 89.2415C3.77917 89.2415 3.56685 89.2833 3.45199 89.3703C3.33712 89.4574 3.28143 89.6105 3.28143 89.8298V93.4706C4.20034 93.481 4.86167 93.314 5.26543 92.9694C5.66919 92.6248 5.87455 92.0644 5.87455 91.2917Z" fill="#3C3734"/>
<path d="M19.6825 96.5963C19.6825 96.6346 19.6721 96.8678 19.6547 97.2994C19.6338 97.731 19.6268 98.1417 19.6268 98.5315V99.0049C18.6905 98.9458 16.8353 98.9179 14.0647 98.9179H12.2721C12.0911 98.9179 12.0006 98.8796 12.0006 98.803C12.0006 98.7508 12.0285 98.723 12.0876 98.7125C12.1155 98.7125 12.2965 98.6986 12.6341 98.6743C12.8812 98.6569 13.0344 98.6012 13.0866 98.5176C13.1388 98.4306 13.1666 98.2044 13.1666 97.8424V89.7602C13.1666 89.4817 13.1249 89.3181 13.0448 89.2625C12.9648 89.2102 12.7037 89.1824 12.2651 89.1824C12.112 89.1824 12.0354 89.1406 12.0354 89.0606C12.0354 88.9805 12.1398 88.9387 12.3522 88.9387H18.4329C18.7184 88.9387 18.9829 88.9213 19.2231 88.8831C19.2439 89.2938 19.2857 89.8611 19.3518 90.5886L19.411 91.2047C19.4215 91.2534 19.4249 91.3161 19.4249 91.3926C19.4249 91.4901 19.3832 91.5354 19.2961 91.5354C19.1917 91.5354 19.1152 91.4135 19.0664 91.1734C18.8854 90.3067 18.5896 89.7602 18.1788 89.527C17.8725 89.353 17.0685 89.2659 15.7702 89.2659H14.5937V93.4811H14.9383C16.0104 93.4811 16.6613 93.401 16.8945 93.2374C17.1277 93.0738 17.2878 92.6004 17.3748 91.8173C17.3957 91.6154 17.4479 91.5145 17.5314 91.5145C17.6359 91.5145 17.6881 91.6015 17.6881 91.772C17.6881 91.9426 17.6776 92.1967 17.6602 92.5308C17.6393 92.865 17.6324 93.1191 17.6324 93.2896C17.6324 94.3129 17.6463 95.016 17.6776 95.3989C17.6846 95.4964 17.6881 95.5764 17.6881 95.6426C17.6881 95.7679 17.6359 95.8305 17.5314 95.8305C17.4653 95.8305 17.4201 95.7888 17.3957 95.7087C17.3713 95.6286 17.333 95.3641 17.2739 94.9116C17.1973 94.3478 16.9641 93.9997 16.5742 93.8639C16.4037 93.8082 15.9547 93.7769 15.2342 93.7769H14.5902V98.5803C16.6926 98.5803 17.9248 98.5385 18.2902 98.4515C18.9202 98.3088 19.2787 97.7066 19.3658 96.638C19.3832 96.4014 19.4458 96.283 19.5537 96.283C19.6477 96.283 19.6964 96.384 19.6964 96.5858L19.6825 96.5963Z" fill="#3C3734"/>
<path d="M29.5606 96.109C29.5606 96.9304 29.2473 97.6301 28.6208 98.2079C27.9943 98.7856 27.2425 99.0745 26.3618 99.0745C25.8467 99.0745 25.2306 98.9179 24.5136 98.6012C24.3222 98.5142 24.1795 98.4724 24.082 98.4724C23.9671 98.4724 23.894 98.6046 23.8662 98.8692C23.8557 99.0049 23.7931 99.0745 23.6782 99.0745C23.5808 99.0745 23.5355 99.0154 23.5355 98.904C23.5355 98.8274 23.539 98.7717 23.5494 98.7334C23.626 98.1522 23.6643 97.6092 23.6643 97.1114C23.6643 97.0175 23.6539 96.7494 23.6365 96.3074C23.626 96.2482 23.6225 96.1751 23.6225 96.0777C23.6225 95.935 23.6817 95.8619 23.7931 95.8619C23.8871 95.8619 23.9567 95.9767 23.995 96.2099C24.2421 97.9294 25.0496 98.7856 26.4175 98.7856C26.9988 98.7856 27.4513 98.6221 27.7715 98.2914C28.0918 97.9607 28.2519 97.4943 28.2519 96.8921C28.2519 96.3561 28.0952 95.9002 27.7855 95.5242C27.4757 95.1448 26.9431 94.7724 26.1878 94.4C25.2794 93.951 24.6493 93.5159 24.2943 93.0947C23.9393 92.6735 23.7652 92.1549 23.7652 91.5319C23.7652 90.7383 24.0193 90.0839 24.531 89.5688C25.0427 89.0536 25.6901 88.796 26.4732 88.796C26.7969 88.796 27.2459 88.9074 27.8203 89.1267C28.0221 89.2033 28.1683 89.2416 28.2658 89.2416C28.3702 89.2416 28.4398 89.2207 28.4746 89.1824C28.5094 89.1441 28.5408 89.0432 28.5686 88.8831C28.5895 88.7891 28.6417 88.7404 28.7252 88.7404C28.8192 88.7404 28.8679 88.7995 28.8679 88.9109C28.8679 88.9875 28.8645 89.0467 28.854 89.0815C28.8262 89.3112 28.8123 89.5897 28.8123 89.9134C28.8123 90.3728 28.8366 90.7348 28.8854 91.0028L28.8993 91.2325C28.9097 91.337 28.8645 91.3892 28.7705 91.3892C28.6661 91.3892 28.593 91.2778 28.5547 91.0585C28.4503 90.4946 28.1997 90.0247 27.8098 89.6453C27.4165 89.2694 26.9779 89.078 26.4906 89.078C26.0033 89.078 25.6309 89.2311 25.3524 89.5374C25.0705 89.8437 24.9278 90.2579 24.9278 90.7835C24.9278 91.3961 25.1332 91.8869 25.5439 92.2593C25.7736 92.4682 26.2714 92.7675 27.0336 93.1469C27.9316 93.5959 28.5756 94.0519 28.9689 94.5148C29.3622 94.9778 29.5571 95.5068 29.5571 96.0986L29.5606 96.109Z" fill="#3C3734"/>
<path d="M41.0331 91.5076C41.0331 91.6329 40.9739 91.6955 40.8625 91.6955C40.7512 91.6955 40.6676 91.5702 40.6189 91.3231C40.598 91.1526 40.5806 90.9785 40.5597 90.808C40.4936 90.4634 40.3822 90.171 40.2291 89.9343C40.0272 89.6176 39.7 89.4192 39.2405 89.3322C38.9447 89.273 38.7045 89.2521 38.5235 89.2591C38.0745 89.273 37.803 89.2799 37.7056 89.2869V97.9469C37.7056 98.2915 37.7961 98.5073 37.977 98.5943C38.071 98.643 38.339 98.6709 38.7811 98.6813C38.896 98.6917 38.9516 98.73 38.9516 98.8031C38.9516 98.8832 38.8751 98.9249 38.7219 98.9249C38.6453 98.9249 38.5792 98.9215 38.52 98.911C37.9457 98.8901 37.542 98.8832 37.3018 98.8832C36.985 98.8832 36.6892 98.8901 36.4142 98.9041C36.1358 98.918 35.7842 98.9249 35.3526 98.9249C35.1333 98.9249 35.0219 98.8867 35.0219 98.8101C35.0219 98.7231 35.2273 98.6743 35.638 98.6674C35.9339 98.6674 36.1253 98.6047 36.2123 98.4794C36.2611 98.4028 36.2854 98.2079 36.2854 97.8912V89.2904C35.3387 89.3008 34.7504 89.3496 34.5207 89.4331C33.9186 89.6524 33.5635 90.2406 33.4591 91.1978C33.4313 91.4832 33.3651 91.6294 33.2572 91.6294C33.1424 91.6294 33.0867 91.5285 33.0867 91.3266C33.0867 91.2222 33.0902 91.1178 33.1006 91.0099L33.1284 90.6792C33.1563 90.2406 33.2015 89.6628 33.2572 88.9458H33.9012L36.8249 88.9876C37.1695 88.998 37.7056 88.998 38.4295 88.9876L40.8103 88.9458C40.8312 89.4818 40.8904 90.2754 40.9983 91.3266C40.9983 91.3544 41.0018 91.3927 41.0122 91.4345C41.0227 91.4763 41.0261 91.5041 41.0261 91.5145L41.0331 91.5076Z" fill="#3C3734"/>
<path d="M53.3894 98.8135C53.3894 98.8936 53.3163 98.9354 53.1736 98.9354C53.0797 98.9354 52.9926 98.9319 52.9161 98.9214L51.0957 98.8623L49.2753 98.9214C49.2091 98.9319 49.136 98.9354 49.0595 98.9354C48.868 98.9354 48.774 98.8866 48.774 98.7857C48.774 98.6743 48.9028 98.6221 49.1604 98.6221C50.0027 98.6117 50.4204 98.5281 50.4204 98.368C50.4204 98.3576 50.41 98.3228 50.3926 98.2566L50.2742 97.8772L50.2011 97.6754C50.1141 97.3795 49.9053 96.7251 49.5711 95.7088H46.5046C45.9303 97.2368 45.6449 98.1174 45.6449 98.3471C45.6449 98.4829 45.7006 98.5629 45.8155 98.5908C45.8433 98.6012 46.0835 98.6186 46.5325 98.6499C46.8109 98.6604 46.9467 98.7091 46.9467 98.7927C46.9467 98.8866 46.8214 98.9354 46.5742 98.9354C46.1357 98.9354 45.624 98.9145 45.0393 98.8797C44.8965 98.8692 44.7469 98.8658 44.5937 98.8658C44.4406 98.8658 44.2944 98.8832 44.1482 98.9145C44.0716 98.9319 44.009 98.9388 43.9602 98.9388C43.828 98.9388 43.7584 98.8971 43.7584 98.8101C43.7584 98.723 43.908 98.6743 44.2109 98.6674C44.5137 98.6569 44.7295 98.6117 44.8617 98.5316C44.994 98.4515 45.1019 98.2949 45.1785 98.0652C46.4072 94.5358 47.4096 91.7025 48.1823 89.5619C48.2032 89.4505 48.2485 89.3217 48.3146 89.1825L48.3772 88.9214C48.4051 88.817 48.4434 88.7648 48.4921 88.7648C48.52 88.7648 48.5443 88.7926 48.5652 88.8518C48.6905 89.2242 48.9724 90.0039 49.411 91.1873C49.7556 92.1132 50.6118 94.4418 51.9763 98.1696C52.0529 98.3854 52.1503 98.5246 52.2687 98.5838C52.387 98.643 52.6341 98.6778 53.0066 98.6882C53.2537 98.6987 53.379 98.7439 53.379 98.824L53.3894 98.8135ZM49.505 95.3781C49.3484 94.9465 49.0908 94.2364 48.7323 93.241L48.0431 91.2535C47.6393 92.3116 47.1555 93.6865 46.5882 95.3781H49.505Z" fill="#3C3734"/>
<path d="M65.0325 89.085C65.0325 89.1615 64.9455 89.1998 64.7749 89.1998H64.2876C64.0475 89.1998 63.9048 89.2625 63.856 89.3878C63.8351 89.4539 63.8282 89.5653 63.8282 89.7184V95.0857C63.8282 96.478 63.5671 97.4943 63.0485 98.1278C62.5264 98.7613 61.6876 99.0815 60.532 99.0815C59.1466 99.0815 58.1721 98.6882 57.6082 97.905C57.2357 97.3795 57.0478 96.5128 57.0478 95.3084V89.5583C57.0199 89.3878 56.9016 89.2799 56.6997 89.2416C56.6405 89.2311 56.463 89.2277 56.1637 89.2277C56.0001 89.2103 55.9166 89.1615 55.9166 89.085C55.9166 88.9979 55.9827 88.9562 56.1184 88.9562H59.345C59.5086 88.9562 59.5887 89.0084 59.5887 89.1128C59.5887 89.1789 59.5609 89.2172 59.5017 89.2277C59.4425 89.2381 59.2545 89.2486 58.9274 89.2555C58.7951 89.2555 58.7011 89.266 58.6559 89.2834C58.5584 89.3217 58.5062 89.3878 58.4992 89.4852C58.4888 89.5235 58.4853 89.795 58.4853 90.2997V95.4268C58.4853 96.6868 58.6872 97.5465 59.0875 98.0025C59.4878 98.462 60.0864 98.6882 60.88 98.6882C62.3315 98.6882 63.1564 97.8633 63.3478 96.2169C63.3757 95.9698 63.3896 94.9221 63.3896 93.0704V89.8124C63.3896 89.6871 63.3896 89.6349 63.3896 89.6558C63.3896 89.4469 63.2887 89.3182 63.0938 89.2694C63.0276 89.2486 62.8327 89.2416 62.5125 89.2416C62.3245 89.2416 62.2305 89.1894 62.2305 89.085C62.2305 88.9979 62.2967 88.9562 62.4324 88.9562H64.7123C64.9316 88.9562 65.0429 88.9979 65.0429 89.085H65.0325Z" fill="#3C3734"/>
<path d="M76.5466 98.4758C76.5466 98.8761 76.2124 99.078 75.5441 99.078C74.7993 99.078 74.2145 98.7682 73.7934 98.1452C73.6124 97.8772 73.494 97.6196 73.4418 97.3724C73.3896 97.1253 73.3095 96.4918 73.2051 95.479C73.1494 94.8663 72.951 94.4347 72.6169 94.1806C72.2827 93.9266 71.7363 93.7908 70.981 93.7734V98.2913C70.981 98.4828 71.1341 98.6011 71.4404 98.6499C71.5274 98.6603 71.7467 98.6707 72.0983 98.6777C72.2236 98.6777 72.2862 98.716 72.2862 98.7926C72.2862 98.8796 72.2062 98.9214 72.0426 98.9214H68.6733C68.4644 98.9214 68.3565 98.8796 68.3565 98.7926C68.3565 98.7264 68.4957 98.6882 68.7707 98.6777C69.2197 98.6673 69.4634 98.6116 69.5017 98.5072C69.54 98.4584 69.5608 98.2739 69.5608 97.9468V90.0317C69.5608 89.6488 69.5191 89.4191 69.439 89.3425C69.359 89.2659 69.1118 89.2241 68.7011 89.2137C68.4609 89.2137 68.3426 89.1719 68.3426 89.0849C68.3426 88.9909 68.4192 88.9422 68.5723 88.9422C68.6002 88.9422 68.6454 88.9457 68.7011 88.9561L70.6085 88.9979C70.8 88.9979 71.068 88.9909 71.4126 88.977C71.7954 88.9526 72.0635 88.9387 72.2166 88.9387C73.1042 88.9387 73.8108 89.1371 74.3329 89.5339C74.855 89.9307 75.1125 90.4667 75.1125 91.1455C75.1125 91.8242 74.8445 92.3672 74.3085 92.8023C73.7725 93.2374 73.0485 93.4915 72.1296 93.5681C72.0426 93.5785 71.9938 93.5924 71.9869 93.6098C71.9869 93.6481 72.0356 93.669 72.1296 93.669C73.132 93.843 73.8247 94.1946 74.2006 94.7271C74.5765 95.2597 74.8306 96.2203 74.9524 97.6091C75.029 98.3958 75.297 98.7891 75.7565 98.7891C75.8992 98.7891 75.9723 98.7612 75.9723 98.7021C75.9723 98.6916 75.9688 98.6812 75.9584 98.6742C75.9096 98.5698 75.8853 98.4828 75.8853 98.4167C75.8853 98.2148 75.9897 98.1138 76.202 98.1138C76.4317 98.1138 76.5466 98.2322 76.5466 98.4724V98.4758ZM73.5776 91.2917C73.5776 89.9238 72.9858 89.2415 71.7989 89.2415C71.4822 89.2415 71.2699 89.2833 71.155 89.3703C71.0401 89.4574 70.9844 89.6105 70.9844 89.8298V93.4706C71.9033 93.481 72.5647 93.314 72.9684 92.9694C73.3722 92.6248 73.5776 92.0644 73.5776 91.2917Z" fill="#3C3734"/>
<path d="M88.6037 98.8135C88.6037 98.8936 88.5341 98.9354 88.3879 98.9354C88.2939 98.9354 88.2069 98.9319 88.1303 98.9214L86.3099 98.8623L84.4895 98.9214C84.4234 98.9319 84.3503 98.9354 84.2737 98.9354C84.0823 98.9354 83.9883 98.8866 83.9883 98.7857C83.9883 98.6743 84.1171 98.6221 84.3746 98.6221C85.217 98.6117 85.6346 98.5281 85.6346 98.368C85.6346 98.3576 85.6242 98.3228 85.6068 98.2566L85.4885 97.8772L85.4154 97.6754C85.3283 97.3795 85.1195 96.7251 84.7854 95.7088H81.7189C81.1445 97.2368 80.8591 98.1174 80.8591 98.3471C80.8591 98.4829 80.9148 98.5629 81.0297 98.5908C81.0575 98.6012 81.2977 98.6186 81.7467 98.6499C82.0252 98.6604 82.1609 98.7091 82.1609 98.7927C82.1609 98.8866 82.0356 98.9354 81.7885 98.9354C81.3499 98.9354 80.8383 98.9145 80.2535 98.8797C80.1108 98.8692 79.9611 98.8658 79.808 98.8658C79.6548 98.8658 79.5086 98.8832 79.3624 98.9145C79.2859 98.9319 79.2232 98.9388 79.1745 98.9388C79.0422 98.9388 78.9726 98.8971 78.9726 98.8101C78.9726 98.723 79.1223 98.6743 79.4251 98.6674C79.7279 98.6569 79.9437 98.6117 80.076 98.5316C80.2082 98.4515 80.3161 98.2949 80.3927 98.0652C81.6214 94.5358 82.6238 91.7025 83.3966 89.5619C83.4174 89.4505 83.4627 89.3217 83.5288 89.1825L83.5915 88.9214C83.6193 88.817 83.6576 88.7648 83.7063 88.7648C83.7342 88.7648 83.7586 88.7926 83.7794 88.8518C83.9047 89.2242 84.1867 90.0039 84.6252 91.1873C84.9698 92.1132 85.8261 94.4418 87.1905 98.1696C87.2671 98.3854 87.3646 98.5246 87.4829 98.5838C87.6012 98.643 87.8484 98.6778 88.2208 98.6882C88.4679 98.6987 88.5932 98.7439 88.5932 98.824L88.6037 98.8135ZM84.7192 95.3781C84.5626 94.9465 84.305 94.2364 83.9465 93.241L83.2573 91.2535C82.8536 92.3116 82.3698 93.6865 81.8024 95.3781H84.7192Z" fill="#3C3734"/>
<path d="M100.045 89.085C100.045 89.1825 99.9264 89.2243 99.6862 89.2138H99.1119C98.9588 89.2138 98.8683 89.2417 98.8404 89.2939C98.8126 89.3461 98.7987 89.5062 98.7987 89.7742V98.02C98.7987 98.5247 98.7917 98.8205 98.7847 98.9075C98.7778 98.9946 98.7465 99.0363 98.6977 99.0363C98.642 99.0363 98.5724 98.9841 98.4993 98.8762L96.6685 96.1926C95.6069 94.6263 94.3155 92.6736 92.7945 90.3311V98.3611C92.8049 98.4864 92.878 98.5664 93.0103 98.5978C93.146 98.6326 93.4697 98.6535 93.9814 98.6639C94.1067 98.6639 94.1693 98.7022 94.1693 98.7788C94.1693 98.8762 94.044 98.9215 93.7969 98.9215C93.7099 98.9215 93.4384 98.9075 92.9789 98.8797C92.8258 98.8693 92.6761 98.8658 92.5334 98.8658C92.5439 98.8658 92.4603 98.8762 92.2828 98.8936C92.1053 98.9145 91.8373 98.9215 91.4718 98.9215H91.3291C91.1098 98.9215 90.9984 98.8797 90.9984 98.7927C90.9984 98.7057 91.0924 98.6639 91.2838 98.6639C91.8477 98.6535 92.1749 98.6186 92.2654 98.556C92.3559 98.4933 92.4011 98.2915 92.4011 97.9469V90.8671C92.4011 90.0735 92.2376 89.5758 91.9139 89.3739C91.7607 89.2765 91.4892 89.2312 91.0959 89.2312C90.8488 89.2312 90.7234 89.1825 90.7234 89.0815C90.7234 88.991 90.7931 88.9458 90.9393 88.9458C91.1307 88.9458 91.3743 88.9562 91.6702 88.9736C91.9661 88.9945 92.1262 89.0015 92.1436 89.0015C92.1714 89.0015 92.3072 88.998 92.5439 88.9876C92.8606 88.9876 93.1634 88.9736 93.4628 88.9458L98.4088 96.3284V89.9482C98.4088 89.6524 98.4019 89.4714 98.3949 89.4122C98.3879 89.353 98.3462 89.3008 98.28 89.2695C98.2139 89.2347 97.9842 89.2208 97.5909 89.2208C97.2463 89.2208 97.0757 89.179 97.0757 89.092C97.0757 88.998 97.1906 88.9493 97.4203 88.9493H99.728C99.9369 88.9493 100.045 88.998 100.045 89.092V89.085Z" fill="#3C3734"/>
<path d="M111.284 91.5076C111.284 91.6329 111.228 91.6955 111.113 91.6955C110.999 91.6955 110.918 91.5702 110.87 91.3231C110.849 91.1526 110.831 90.9785 110.814 90.808C110.748 90.4634 110.637 90.171 110.483 89.9343C110.282 89.6176 109.954 89.4192 109.495 89.3322C109.199 89.273 108.959 89.2521 108.778 89.2591C108.329 89.273 108.057 89.2799 107.96 89.2869V97.9469C107.96 98.2915 108.05 98.5073 108.231 98.5943C108.325 98.643 108.593 98.6709 109.035 98.6813C109.15 98.6917 109.206 98.73 109.206 98.8031C109.206 98.8832 109.129 98.9249 108.976 98.9249C108.9 98.9249 108.834 98.9215 108.774 98.911C108.2 98.8901 107.793 98.8832 107.556 98.8832C107.239 98.8832 106.944 98.8901 106.669 98.9041C106.39 98.918 106.039 98.9249 105.607 98.9249C105.388 98.9249 105.276 98.8867 105.276 98.8101C105.276 98.7231 105.482 98.6743 105.892 98.6674C106.188 98.6674 106.38 98.6047 106.467 98.4794C106.515 98.4028 106.536 98.2079 106.536 97.8912V89.2904C105.59 89.3008 105.001 89.3496 104.772 89.4331C104.169 89.6524 103.814 90.2406 103.71 91.1978C103.682 91.4832 103.616 91.6294 103.508 91.6294C103.393 91.6294 103.338 91.5285 103.338 91.3266C103.338 91.2222 103.341 91.1178 103.351 91.0099L103.379 90.6792C103.407 90.2406 103.449 89.6628 103.508 88.9458H104.152L107.076 88.9876C107.42 88.998 107.956 88.998 108.68 88.9876L111.061 88.9458C111.079 89.4818 111.141 90.2754 111.249 91.3266C111.249 91.3544 111.253 91.3927 111.263 91.4345C111.274 91.4763 111.277 91.5041 111.277 91.5145L111.284 91.5076Z" fill="#3C3734"/>
<path d="M134.502 96.0673H126.416V95.3224H134.502V96.0673Z" fill="#3C3734"/>
<path d="M155.746 96.297C155.746 97.2716 155.301 97.9956 154.413 98.462C153.982 98.6917 153.366 98.8345 152.565 98.8936C152.346 98.9041 151.695 98.9075 150.616 98.9075H148.865C148.701 98.9075 148.621 98.8658 148.621 98.7857C148.621 98.7057 148.771 98.6639 149.067 98.6639C149.411 98.6639 149.613 98.6291 149.676 98.556C149.739 98.4829 149.77 98.2671 149.77 97.9051V90.1501C149.77 89.729 149.749 89.4853 149.711 89.4192C149.645 89.3043 149.401 89.2417 148.98 89.2312C148.722 89.2312 148.594 89.1825 148.594 89.0815C148.594 88.991 148.712 88.9458 148.952 88.9458H149.123C149.227 88.9736 149.324 88.9876 149.408 88.9876H152.203C153.237 88.998 154.006 89.1686 154.511 89.5027C155.102 89.896 155.398 90.4634 155.398 91.2083C155.398 91.8591 155.155 92.3917 154.667 92.8059C154.18 93.2201 153.494 93.4811 152.617 93.5856V93.6726C153.487 93.7318 154.166 93.9128 154.653 94.2191C155.381 94.6785 155.743 95.3712 155.743 96.297H155.746ZM153.825 91.351C153.825 90.432 153.616 89.8229 153.195 89.5166C152.976 89.353 152.558 89.273 151.949 89.273C151.785 89.273 151.531 89.2869 151.19 89.3148V93.4742H151.319L152.109 93.4463C152.655 93.4289 153.077 93.234 153.379 92.8651C153.682 92.4961 153.832 91.9914 153.832 91.351H153.825ZM154.239 96.1404C154.239 94.9361 153.752 94.1912 152.777 93.9023C152.492 93.8153 151.959 93.7735 151.187 93.7735V98.0443C151.187 98.3228 151.214 98.4794 151.274 98.5177C151.368 98.5838 151.636 98.6186 152.078 98.6186C152.736 98.6186 153.261 98.4098 153.654 97.9886C154.048 97.5675 154.243 96.9514 154.243 96.1404H154.239Z" fill="#3C3734"/>
<path d="M168.695 89.085C168.695 89.1615 168.608 89.1998 168.437 89.1998H167.95C167.71 89.1998 167.567 89.2625 167.518 89.3878C167.497 89.4539 167.49 89.5653 167.49 89.7184V95.0857C167.49 96.478 167.229 97.4943 166.711 98.1278C166.188 98.7613 165.35 99.0815 164.194 99.0815C162.809 99.0815 161.834 98.6882 161.27 97.905C160.898 97.3795 160.71 96.5128 160.71 95.3084V89.5583C160.682 89.3878 160.564 89.2799 160.362 89.2416C160.303 89.2311 160.125 89.2277 159.826 89.2277C159.662 89.2103 159.579 89.1615 159.579 89.085C159.579 88.9979 159.645 88.9562 159.78 88.9562H163.007C163.171 88.9562 163.251 89.0084 163.251 89.1128C163.251 89.1789 163.223 89.2172 163.164 89.2277C163.108 89.2381 162.917 89.2486 162.589 89.2555C162.457 89.2555 162.363 89.266 162.318 89.2834C162.224 89.3217 162.168 89.3878 162.161 89.4852C162.151 89.5235 162.147 89.795 162.147 90.2997V95.4268C162.147 96.6868 162.349 97.5465 162.75 98.0025C163.15 98.462 163.748 98.6882 164.542 98.6882C165.994 98.6882 166.818 97.8633 167.01 96.2169C167.038 95.9698 167.052 94.9221 167.052 93.0704V89.8124C167.052 89.6871 167.052 89.6349 167.052 89.6558C167.052 89.4469 166.954 89.3182 166.756 89.2694C166.69 89.2486 166.495 89.2416 166.175 89.2416C165.987 89.2416 165.893 89.1894 165.893 89.085C165.893 88.9979 165.959 88.9562 166.094 88.9562H168.374C168.594 88.9562 168.705 88.9979 168.705 89.085H168.695Z" fill="#3C3734"/>
<path d="M179.746 96.5963C179.746 96.6346 179.735 96.8678 179.718 97.2994C179.697 97.731 179.69 98.1417 179.69 98.5315V99.0049C178.754 98.9458 176.899 98.9179 174.128 98.9179H172.335C172.154 98.9179 172.064 98.8796 172.064 98.803C172.064 98.7508 172.092 98.723 172.151 98.7125C172.179 98.7125 172.36 98.6986 172.694 98.6743C172.941 98.6569 173.094 98.6012 173.146 98.5176C173.199 98.4306 173.226 98.2044 173.226 97.8424V89.7602C173.226 89.4817 173.185 89.3181 173.105 89.2625C173.025 89.2068 172.763 89.1824 172.325 89.1824C172.172 89.1824 172.095 89.1406 172.095 89.0606C172.095 88.9805 172.2 88.9387 172.412 88.9387H178.489C178.775 88.9387 179.039 88.9213 179.279 88.8831C179.297 89.2938 179.342 89.8611 179.408 90.5886L179.464 91.2047C179.474 91.2534 179.478 91.3161 179.478 91.3926C179.478 91.4901 179.436 91.5354 179.349 91.5354C179.245 91.5354 179.168 91.4135 179.119 91.1734C178.938 90.3067 178.642 89.7602 178.232 89.527C177.925 89.353 177.121 89.2659 175.823 89.2659H174.647V93.4811H174.991C176.06 93.4811 176.714 93.401 176.947 93.2374C177.18 93.0738 177.341 92.6004 177.428 91.8173C177.445 91.6154 177.501 91.5145 177.584 91.5145C177.689 91.5145 177.741 91.6015 177.741 91.772C177.741 91.9426 177.73 92.1967 177.713 92.5308C177.692 92.865 177.685 93.1191 177.685 93.2896C177.685 94.3129 177.699 95.016 177.73 95.3989C177.737 95.4964 177.741 95.5764 177.741 95.6426C177.741 95.7679 177.689 95.8305 177.584 95.8305C177.518 95.8305 177.473 95.7888 177.448 95.7087C177.424 95.6286 177.382 95.3641 177.327 94.9116C177.25 94.3478 177.017 93.9997 176.627 93.8639C176.456 93.8082 176.007 93.7769 175.287 93.7769H174.647V98.5803C176.749 98.5803 177.981 98.5385 178.347 98.4515C178.977 98.3088 179.335 97.7066 179.422 96.638C179.439 96.4014 179.502 96.283 179.61 96.283C179.704 96.283 179.753 96.384 179.753 96.5858L179.746 96.5963Z" fill="#3C3734"/>
<path d="M192.12 89.085C192.12 89.1825 192.001 89.2243 191.761 89.2138H191.187C191.034 89.2138 190.943 89.2417 190.915 89.2939C190.887 89.3461 190.873 89.5062 190.873 89.7742V98.02C190.873 98.5247 190.867 98.8205 190.86 98.9075C190.853 98.9946 190.821 99.0363 190.773 99.0363C190.717 99.0363 190.647 98.9841 190.574 98.8762L188.743 96.1926C187.682 94.6263 186.39 92.6736 184.869 90.3311V98.3611C184.88 98.4864 184.953 98.5664 185.085 98.5978C185.221 98.6326 185.545 98.6535 186.056 98.6639C186.182 98.6639 186.244 98.7022 186.244 98.7788C186.244 98.8762 186.119 98.9215 185.872 98.9215C185.785 98.9215 185.513 98.9075 185.054 98.8797C184.901 98.8693 184.751 98.8658 184.608 98.8658C184.619 98.8658 184.535 98.8762 184.358 98.8936C184.18 98.9145 183.912 98.9215 183.547 98.9215H183.404C183.185 98.9215 183.073 98.8797 183.073 98.7927C183.073 98.7057 183.167 98.6639 183.359 98.6639C183.923 98.6535 184.25 98.6186 184.34 98.556C184.431 98.4933 184.476 98.2915 184.476 97.9469V90.8671C184.476 90.0735 184.312 89.5758 183.989 89.3739C183.836 89.2765 183.564 89.2312 183.171 89.2312C182.924 89.2312 182.798 89.1825 182.798 89.0815C182.798 88.991 182.868 88.9458 183.014 88.9458C183.206 88.9458 183.449 88.9562 183.745 88.9736C184.041 88.9945 184.201 89.0015 184.218 89.0015C184.246 89.0015 184.382 88.998 184.619 88.9876C184.935 88.9876 185.238 88.9736 185.538 88.9458L190.484 96.3284V89.9482C190.484 89.6524 190.477 89.4714 190.47 89.4122C190.463 89.353 190.421 89.3008 190.355 89.2695C190.289 89.2347 190.059 89.2208 189.666 89.2208C189.321 89.2208 189.151 89.179 189.151 89.092C189.151 88.998 189.265 88.9493 189.495 88.9493H191.803C192.012 88.9493 192.12 88.998 192.12 89.092V89.085Z" fill="#3C3734"/>
<path d="M204.894 93.9893C204.894 95.4129 204.466 96.6172 203.609 97.6022C202.753 98.5873 201.705 99.0781 200.463 99.0781C199.144 99.0781 198.033 98.5803 197.135 97.5814C196.237 96.5824 195.788 95.3502 195.788 93.8883C195.788 92.4264 196.22 91.1769 197.087 90.2266C197.95 89.2764 199.057 88.7996 200.404 88.7996C201.674 88.7996 202.739 89.2973 203.602 90.2893C204.462 91.2848 204.894 92.5169 204.894 93.9893ZM203.289 94.0624C203.289 92.3081 202.931 90.9402 202.214 89.9621C201.765 89.3495 201.138 89.0432 200.334 89.0432C199.53 89.0432 198.977 89.2799 198.555 89.7463C197.783 90.6095 197.393 92.0122 197.393 93.958C197.393 95.4999 197.664 96.7007 198.204 97.5535C198.743 98.4063 199.502 98.8344 200.477 98.8344C201.385 98.8344 202.067 98.4306 202.527 97.6266C203.035 96.7356 203.286 95.5452 203.286 94.0589L203.289 94.0624Z" fill="#3C3734"/>
<path d="M215.089 96.109C215.089 96.9304 214.775 97.6301 214.149 98.2079C213.522 98.7856 212.771 99.0745 211.89 99.0745C211.375 99.0745 210.759 98.9179 210.042 98.6012C209.85 98.5142 209.708 98.4724 209.61 98.4724C209.495 98.4724 209.422 98.6046 209.394 98.8692C209.384 99.0049 209.321 99.0745 209.206 99.0745C209.112 99.0745 209.064 99.0154 209.064 98.904C209.064 98.8274 209.067 98.7717 209.078 98.7334C209.154 98.1522 209.192 97.6092 209.192 97.1114C209.192 97.0175 209.182 96.7494 209.165 96.3074C209.154 96.2482 209.151 96.1751 209.151 96.0777C209.151 95.935 209.206 95.8619 209.321 95.8619C209.415 95.8619 209.485 95.9767 209.523 96.2099C209.77 97.9294 210.578 98.7856 211.946 98.7856C212.527 98.7856 212.979 98.6221 213.3 98.2914C213.62 97.9607 213.78 97.4943 213.78 96.8921C213.78 96.3561 213.623 95.9002 213.314 95.5242C213.004 95.1448 212.468 94.7724 211.716 94.4C210.807 93.951 210.177 93.5159 209.822 93.0947C209.467 92.6735 209.29 92.1549 209.29 91.5319C209.29 90.7383 209.547 90.0839 210.059 89.5688C210.571 89.0536 211.218 88.796 212.001 88.796C212.325 88.796 212.774 88.9074 213.348 89.1267C213.55 89.2033 213.696 89.2416 213.794 89.2416C213.898 89.2416 213.968 89.2207 214.003 89.1824C214.038 89.1441 214.069 89.0432 214.097 88.8831C214.114 88.7891 214.17 88.7404 214.253 88.7404C214.347 88.7404 214.396 88.7995 214.396 88.9109C214.396 88.9875 214.393 89.0467 214.382 89.0815C214.354 89.3112 214.34 89.5897 214.34 89.9134C214.34 90.3728 214.365 90.7348 214.41 91.0028L214.424 91.2325C214.434 91.337 214.389 91.3892 214.295 91.3892C214.191 91.3892 214.118 91.2778 214.079 91.0585C213.975 90.4946 213.724 90.0247 213.334 89.6453C212.941 89.2694 212.503 89.078 212.015 89.078C211.528 89.078 211.159 89.2311 210.874 89.5374C210.592 89.8437 210.452 90.2579 210.452 90.7835C210.452 91.3961 210.658 91.8869 211.068 92.2593C211.298 92.4682 211.796 92.7675 212.558 93.1469C213.456 93.5959 214.1 94.0519 214.493 94.5148C214.887 94.9778 215.082 95.5068 215.082 96.0986L215.089 96.109Z" fill="#3C3734"/>
<path d="M233.181 98.8135C233.181 98.8936 233.108 98.9354 232.965 98.9354C232.868 98.9354 232.784 98.9319 232.708 98.9214L230.887 98.8623L229.067 98.9214C229.001 98.9319 228.928 98.9354 228.851 98.9354C228.66 98.9354 228.566 98.8866 228.566 98.7857C228.566 98.6743 228.695 98.6221 228.952 98.6221C229.795 98.6117 230.212 98.5281 230.212 98.368C230.212 98.3576 230.202 98.3228 230.184 98.2566L230.066 97.8772L229.993 97.6754C229.906 97.3795 229.697 96.7251 229.363 95.7088H226.296C225.722 97.2368 225.437 98.1174 225.437 98.3471C225.437 98.4829 225.496 98.5629 225.607 98.5908C225.635 98.6012 225.875 98.6186 226.324 98.6499C226.603 98.6604 226.738 98.7091 226.738 98.7927C226.738 98.8866 226.613 98.9354 226.366 98.9354C225.927 98.9354 225.416 98.9145 224.831 98.8797C224.688 98.8692 224.539 98.8658 224.386 98.8658C224.232 98.8658 224.083 98.8832 223.94 98.9145C223.863 98.9319 223.801 98.9388 223.752 98.9388C223.62 98.9388 223.55 98.8971 223.55 98.8101C223.55 98.723 223.7 98.6743 224.003 98.6674C224.305 98.6569 224.521 98.6117 224.654 98.5316C224.786 98.4515 224.894 98.2949 224.97 98.0652C226.199 94.5358 227.201 91.7025 227.974 89.5619C227.995 89.4505 228.04 89.3217 228.106 89.1825L228.169 88.9214C228.197 88.817 228.235 88.7648 228.284 88.7648C228.312 88.7648 228.336 88.7926 228.357 88.8518C228.482 89.2242 228.764 90.0039 229.203 91.1873C229.547 92.1132 230.404 94.4418 231.768 98.1696C231.845 98.3854 231.942 98.5246 232.06 98.5838C232.179 98.643 232.426 98.6778 232.798 98.6882C233.046 98.6987 233.171 98.7439 233.171 98.824L233.181 98.8135ZM229.297 95.3781C229.14 94.9465 228.883 94.2364 228.524 93.241L227.835 91.2535C227.431 92.3116 226.947 93.6865 226.38 95.3781H229.297Z" fill="#3C3734"/>
<path d="M239.534 98.7857C239.534 98.8657 239.478 98.9075 239.363 98.9075H239.22C239.161 98.8796 238.514 98.8657 237.271 98.8657C237.031 98.8657 236.794 98.8762 236.554 98.8936C236.429 98.904 236.237 98.9075 235.98 98.9075C235.855 98.9075 235.792 98.8657 235.792 98.7787C235.792 98.7021 235.917 98.6604 236.164 98.6499C236.547 98.6395 236.77 98.5942 236.84 98.5142C236.906 98.4341 236.94 98.1557 236.94 97.6858V90.1222C236.94 89.6523 236.916 89.3878 236.867 89.3321C236.808 89.2346 236.544 89.1789 236.07 89.1581C235.886 89.1511 235.795 89.1163 235.795 89.0571C235.795 88.9805 235.855 88.9423 235.969 88.9423H237.922C238.065 88.9423 238.347 88.9457 238.761 88.9562L239.311 88.9423C239.464 88.9423 239.541 88.984 239.541 89.0641C239.541 89.1372 239.328 89.1824 238.904 89.1998C238.66 89.2103 238.514 89.252 238.462 89.3286C238.409 89.4052 238.382 89.6071 238.382 89.9308V97.5883C238.382 98.1348 238.406 98.4306 238.455 98.4759C238.559 98.5803 238.872 98.643 239.387 98.6638C239.492 98.6638 239.544 98.7056 239.544 98.7857H239.534Z" fill="#3C3734"/>
<path d="M251.291 98.4758C251.291 98.8761 250.957 99.078 250.289 99.078C249.544 99.078 248.959 98.7682 248.538 98.1452C248.357 97.8772 248.239 97.6196 248.187 97.3724C248.134 97.1253 248.054 96.4918 247.95 95.479C247.894 94.8663 247.696 94.4347 247.362 94.1806C247.028 93.9266 246.481 93.7908 245.726 93.7734V98.2913C245.726 98.4828 245.879 98.6011 246.185 98.6499C246.272 98.6603 246.492 98.6707 246.843 98.6777C246.968 98.6777 247.031 98.716 247.031 98.7926C247.031 98.8796 246.951 98.9214 246.787 98.9214H243.418C243.209 98.9214 243.101 98.8796 243.101 98.7926C243.101 98.7264 243.241 98.6882 243.516 98.6777C243.965 98.6673 244.208 98.6116 244.246 98.5072C244.285 98.4584 244.302 98.2739 244.302 97.9468V90.0317C244.302 89.6488 244.26 89.4191 244.18 89.3425C244.1 89.2659 243.853 89.2241 243.442 89.2137C243.202 89.2137 243.084 89.1719 243.084 89.0849C243.084 88.9909 243.16 88.9422 243.314 88.9422C243.341 88.9422 243.383 88.9457 243.442 88.9561L245.35 88.9979C245.541 88.9979 245.809 88.9909 246.154 88.977C246.537 88.9526 246.805 88.9387 246.958 88.9387C247.845 88.9387 248.552 89.1371 249.074 89.5339C249.596 89.9307 249.854 90.4667 249.854 91.1455C249.854 91.8242 249.586 92.3672 249.05 92.8023C248.514 93.2374 247.79 93.4915 246.871 93.5681C246.784 93.5785 246.739 93.5924 246.728 93.6098C246.728 93.6481 246.777 93.669 246.871 93.669C247.873 93.843 248.566 94.1946 248.942 94.7271C249.318 95.2597 249.568 96.2203 249.694 97.6091C249.77 98.3958 250.038 98.7891 250.498 98.7891C250.641 98.7891 250.714 98.7612 250.714 98.7021C250.714 98.6916 250.707 98.6812 250.7 98.6742C250.651 98.5698 250.627 98.4828 250.627 98.4167C250.627 98.2148 250.731 98.1138 250.943 98.1138C251.173 98.1138 251.288 98.2322 251.288 98.4724L251.291 98.4758ZM248.322 91.2917C248.322 89.9238 247.731 89.2415 246.544 89.2415C246.227 89.2415 246.015 89.2833 245.9 89.3703C245.785 89.4574 245.729 89.6105 245.729 89.8298V93.4706C246.648 93.481 247.309 93.314 247.713 92.9694C248.117 92.6248 248.322 92.0644 248.322 91.2917Z" fill="#3C3734"/>
<path d="M262.13 96.5963C262.13 96.6346 262.12 96.8678 262.102 97.2994C262.082 97.731 262.075 98.1417 262.075 98.5315V99.0049C261.138 98.9458 259.283 98.9179 256.512 98.9179H254.72C254.539 98.9179 254.448 98.8796 254.448 98.803C254.448 98.7508 254.476 98.723 254.535 98.7125C254.563 98.7125 254.744 98.6986 255.078 98.6743C255.325 98.6569 255.479 98.6012 255.531 98.5176C255.583 98.4306 255.611 98.2044 255.611 97.8424V89.7602C255.611 89.4817 255.569 89.3181 255.489 89.2625C255.409 89.2068 255.148 89.1824 254.709 89.1824C254.556 89.1824 254.48 89.1406 254.48 89.0606C254.48 88.9805 254.584 88.9387 254.796 88.9387H260.874C261.159 88.9387 261.424 88.9213 261.664 88.8831C261.681 89.2938 261.727 89.8611 261.793 90.5886L261.848 91.2047C261.859 91.2534 261.862 91.3161 261.862 91.3926C261.862 91.4901 261.82 91.5354 261.733 91.5354C261.629 91.5354 261.552 91.4135 261.504 91.1734C261.323 90.3067 261.027 89.7602 260.616 89.527C260.31 89.353 259.506 89.2659 258.208 89.2659H257.031V93.4811H257.376C258.444 93.4811 259.099 93.401 259.332 93.2374C259.565 93.0738 259.725 92.6004 259.812 91.8173C259.83 91.6154 259.885 91.5145 259.969 91.5145C260.073 91.5145 260.125 91.6015 260.125 91.772C260.125 91.9426 260.115 92.1967 260.098 92.5308C260.077 92.865 260.07 93.1191 260.07 93.2896C260.07 94.3129 260.084 95.016 260.115 95.3989C260.122 95.4964 260.125 95.5764 260.125 95.6426C260.125 95.7679 260.073 95.8305 259.969 95.8305C259.903 95.8305 259.857 95.7888 259.833 95.7087C259.809 95.6286 259.767 95.3641 259.711 94.9116C259.635 94.3478 259.401 93.9997 259.012 93.8639C258.841 93.8082 258.392 93.7769 257.671 93.7769H257.031V98.5803C259.133 98.5803 260.366 98.5385 260.731 98.4515C261.361 98.3088 261.72 97.7066 261.807 96.638C261.824 96.4014 261.887 96.283 261.995 96.283C262.088 96.283 262.137 96.384 262.137 96.5858L262.13 96.5963Z" fill="#3C3734"/>
<path d="M272.008 96.109C272.008 96.9304 271.695 97.6301 271.069 98.2079C270.442 98.7856 269.69 99.0745 268.81 99.0745C268.295 99.0745 267.678 98.9179 266.961 98.6012C266.77 98.5142 266.627 98.4724 266.53 98.4724C266.415 98.4724 266.342 98.6046 266.314 98.8692C266.304 99.0049 266.241 99.0745 266.126 99.0745C266.032 99.0745 265.983 99.0154 265.983 98.904C265.983 98.8274 265.987 98.7717 265.997 98.7334C266.074 98.1522 266.112 97.6092 266.112 97.1114C266.112 97.0175 266.102 96.7494 266.084 96.3074C266.074 96.2482 266.07 96.1751 266.07 96.0777C266.07 95.935 266.126 95.8619 266.241 95.8619C266.335 95.8619 266.405 95.9767 266.443 96.2099C266.69 97.9294 267.497 98.7856 268.865 98.7856C269.447 98.7856 269.899 98.6221 270.219 98.2914C270.54 97.9607 270.7 97.4943 270.7 96.8921C270.7 96.3561 270.543 95.9002 270.233 95.5242C269.924 95.1448 269.388 94.7724 268.636 94.4C267.727 93.951 267.097 93.5159 266.742 93.0947C266.387 92.6735 266.21 92.1549 266.21 91.5319C266.21 90.7383 266.467 90.0839 266.979 89.5688C267.491 89.0536 268.138 88.796 268.921 88.796C269.245 88.796 269.694 88.9074 270.268 89.1267C270.47 89.2033 270.616 89.2416 270.714 89.2416C270.818 89.2416 270.888 89.2207 270.923 89.1824C270.957 89.1441 270.989 89.0432 271.016 88.8831C271.034 88.7891 271.09 88.7404 271.173 88.7404C271.267 88.7404 271.316 88.7995 271.316 88.9109C271.316 88.9875 271.312 89.0467 271.302 89.0815C271.274 89.3112 271.26 89.5897 271.26 89.9134C271.26 90.3728 271.284 90.7348 271.33 91.0028L271.344 91.2325C271.354 91.337 271.309 91.3892 271.215 91.3892C271.11 91.3892 271.037 91.2778 270.999 91.0585C270.895 90.4946 270.644 90.0247 270.254 89.6453C269.861 89.2694 269.422 89.078 268.935 89.078C268.448 89.078 268.079 89.2311 267.793 89.5374C267.511 89.8437 267.372 90.2579 267.372 90.7835C267.372 91.3961 267.578 91.8869 267.988 92.2593C268.218 92.4682 268.716 92.7675 269.478 93.1469C270.376 93.5959 271.02 94.0519 271.413 94.5148C271.807 94.9778 272.002 95.5068 272.002 96.0986L272.008 96.109Z" fill="#3C3734"/>
<defs>
<clipPath id="clip0_2_641">
<rect width="271.365" height="72.6642" fill="white"/>
</clipPath>
</defs>
</svg>
