<svg width="191" height="70" viewBox="0 0 191 70" fill="none" xmlns="http://www.w3.org/2000/svg">
<g clip-path="url(#clip0_2_671)">
<path d="M153.254 50.0689H138.949V15.2323H153.254V50.0689Z" fill="#3C3734"/>
<path d="M112.866 30.9244C112.001 22.1546 104.897 15.1803 95.9639 14.3302V30.9244H112.866Z" fill="#3C3734"/>
<path d="M75.2708 32.7374C75.2708 42.34 82.728 50.2337 92.2705 51.1446V14.3215C82.728 15.2324 75.2708 23.1261 75.2708 32.7287V32.7374Z" fill="#3C3734"/>
<path d="M95.9639 47.4926V51.1445C104.897 50.2944 112.001 43.3202 112.866 34.5503H109.147C108.307 41.3077 102.838 46.6685 95.9639 47.4926Z" fill="#3C3734"/>
<path d="M37.5957 30.9244C36.7298 22.1546 29.6259 15.1803 20.6931 14.3302V30.9244H37.5957Z" fill="#3C3734"/>
<path d="M0 32.7374C0 42.34 7.45728 50.2337 16.9998 51.1446V14.3215C7.45728 15.2324 0 23.1261 0 32.7374Z" fill="#3C3734"/>
<path d="M20.6931 47.4926V51.1445C29.6259 50.2944 36.7298 43.3202 37.5957 34.5503H33.8759C33.0365 41.3077 27.5672 46.6685 20.6931 47.4926Z" fill="#3C3734"/>
<path d="M74.8113 15.2931H58.1296L66.4793 36.4587L74.8113 15.2931Z" fill="#3C3734"/>
<path d="M37.9138 15.2931L52.3866 50.069H61.125L64.5179 41.4552L54.1891 15.2931H37.9138Z" fill="#3C3734"/>
<path d="M146.106 12.9076C150.269 12.9076 153.643 10.0181 153.643 6.45379C153.643 2.88946 150.269 0 146.106 0C141.944 0 138.569 2.88946 138.569 6.45379C138.569 10.0181 141.944 12.9076 146.106 12.9076Z" fill="#3C3734"/>
<path d="M166.702 29.3022C170.865 29.3022 174.239 26.4128 174.239 22.8484C174.239 19.2841 170.865 16.3947 166.702 16.3947C162.54 16.3947 159.165 19.2841 159.165 22.8484C159.165 26.4128 162.54 29.3022 166.702 29.3022Z" fill="#3C3734"/>
<path d="M176.686 15.2323V39.781V50.0602H190.991V27.5066C190.991 20.7319 184.585 15.2496 176.686 15.2323Z" fill="#3C3734"/>
<path d="M131.854 0H117.832V50.1296H131.854V0Z" fill="#3C3734"/>
<path d="M167.32 31.4535C162.09 31.4535 157.849 35.6172 157.849 40.7525C157.849 45.8878 162.09 50.0515 167.32 50.0515C167.541 50.0515 167.753 50.0515 167.974 50.0255H173.505V47.7962V33.7002V31.4448H167.329L167.32 31.4535Z" fill="#3C3734"/>
</g>
<path d="M5.77192 69.312C5.77192 69.5938 5.53673 69.7359 5.06635 69.7359C4.54208 69.7359 4.1305 69.5178 3.83406 69.0793C3.70667 68.8907 3.62337 68.7094 3.58662 68.5354C3.54988 68.3615 3.49353 67.9156 3.42003 67.2027C3.38083 66.7715 3.24119 66.4677 3.006 66.2889C2.77081 66.11 2.38618 66.0145 1.85456 66.0023V69.1822C1.85456 69.3169 1.96235 69.4002 2.17794 69.4345C2.23919 69.4419 2.39353 69.4492 2.64097 69.4541C2.72917 69.4541 2.77326 69.4811 2.77326 69.535C2.77326 69.5962 2.71692 69.6256 2.60177 69.6256H0.232739C0.0857458 69.6256 0.00979952 69.5962 0.00979952 69.535C0.00979952 69.4884 0.107795 69.4615 0.301335 69.4541C0.61737 69.4468 0.788861 69.4076 0.81581 69.3341C0.842759 69.2998 0.857458 69.1699 0.857458 68.9397V63.3686C0.857458 63.0991 0.828059 62.9374 0.771712 62.8836C0.715365 62.8297 0.541423 62.8003 0.252338 62.7929C0.0832959 62.7929 0 62.7635 0 62.7023C0 62.6361 0.0538974 62.6018 0.161692 62.6018C0.181291 62.6018 0.21314 62.6043 0.252338 62.6116L1.59487 62.641C1.72962 62.641 1.91826 62.6361 2.16079 62.6263C2.43028 62.6092 2.61892 62.5994 2.72672 62.5994C3.35144 62.5994 3.84876 62.739 4.21624 63.0183C4.58373 63.2976 4.76502 63.6749 4.76502 64.1526C4.76502 64.6303 4.57638 65.0125 4.19909 65.3187C3.82181 65.625 3.31224 65.8038 2.66547 65.8577C2.60422 65.8651 2.56992 65.8749 2.56502 65.8871C2.56502 65.9141 2.59932 65.9288 2.66547 65.9288C3.37104 66.0512 3.85856 66.2987 4.12315 66.6735C4.38774 67.0483 4.56658 67.7245 4.65232 68.702C4.70622 69.2557 4.89486 69.5325 5.21824 69.5325C5.31869 69.5325 5.37014 69.5129 5.37014 69.4713C5.37014 69.4639 5.36769 69.4566 5.36034 69.4517C5.32604 69.3782 5.30889 69.3169 5.30889 69.2704C5.30889 69.1283 5.38239 69.0573 5.53183 69.0573C5.69352 69.0573 5.77437 69.1405 5.77437 69.3096L5.77192 69.312ZM3.68217 64.2555C3.68217 63.2927 3.26569 62.8125 2.43028 62.8125C2.20734 62.8125 2.0579 62.8419 1.97705 62.9032C1.89621 62.9644 1.85701 63.0722 1.85701 63.2265V65.7891C2.50378 65.7965 2.96925 65.6789 3.25344 65.4363C3.53763 65.1938 3.68217 64.7994 3.68217 64.2555Z" fill="#3C3734"/>
<path d="M13.4008 67.9891C13.4008 68.0161 13.3934 68.1802 13.3812 68.484C13.3665 68.7878 13.3616 69.0769 13.3616 69.3512V69.6844C12.7026 69.6428 11.3968 69.6232 9.44668 69.6232H8.18499C8.05759 69.6232 7.9939 69.5962 7.9939 69.5423C7.9939 69.5056 8.0135 69.486 8.05514 69.4786C8.07474 69.4786 8.20214 69.4688 8.43977 69.4517C8.61372 69.4394 8.72151 69.4003 8.75826 69.3415C8.79501 69.2802 8.81461 69.121 8.81461 68.8662V63.1776C8.81461 62.9816 8.78521 62.8664 8.72886 62.8272C8.67251 62.7905 8.48877 62.7709 8.18009 62.7709C8.07229 62.7709 8.01839 62.7415 8.01839 62.6851C8.01839 62.6288 8.09189 62.5994 8.24133 62.5994H12.5213C12.7222 62.5994 12.9084 62.5871 13.0774 62.5602C13.0921 62.8493 13.1215 63.2486 13.168 63.7606L13.2097 64.1943C13.217 64.2286 13.2195 64.2727 13.2195 64.3265C13.2195 64.3951 13.1901 64.427 13.1288 64.427C13.0553 64.427 13.0015 64.3412 12.9672 64.1722C12.8398 63.5622 12.6315 63.1776 12.3424 63.0134C12.1268 62.8909 11.5609 62.8297 10.6471 62.8297H9.81906V65.7965H10.0616C10.8162 65.7965 11.2743 65.7401 11.4384 65.625C11.6026 65.5098 11.7153 65.1767 11.7765 64.6254C11.7912 64.4833 11.828 64.4123 11.8868 64.4123C11.9603 64.4123 11.997 64.4735 11.997 64.5936C11.997 64.7136 11.9897 64.8925 11.9774 65.1277C11.9627 65.3628 11.9578 65.5417 11.9578 65.6617C11.9578 66.382 11.9676 66.8769 11.9897 67.1464C11.9946 67.215 11.997 67.2713 11.997 67.3179C11.997 67.406 11.9603 67.4501 11.8868 67.4501C11.8402 67.4501 11.8084 67.4207 11.7912 67.3644C11.7741 67.3081 11.7471 67.1219 11.7055 66.8034C11.6516 66.4065 11.4874 66.1615 11.213 66.066C11.093 66.0268 10.777 66.0047 10.2698 66.0047H9.81661V69.3856C11.2963 69.3856 12.1636 69.3562 12.4208 69.2949C12.8643 69.1945 13.1166 68.7706 13.1778 68.0185C13.1901 67.8519 13.2342 67.7686 13.3101 67.7686C13.3763 67.7686 13.4106 67.8397 13.4106 67.9818L13.4008 67.9891Z" fill="#3C3734"/>
<path d="M20.3535 67.6461C20.3535 68.2243 20.133 68.7167 19.6921 69.1234C19.2511 69.5301 18.7219 69.7334 18.1021 69.7334C17.7395 69.7334 17.3059 69.6232 16.8012 69.4002C16.6665 69.339 16.566 69.3096 16.4974 69.3096C16.4166 69.3096 16.3651 69.4027 16.3455 69.5889C16.3382 69.6844 16.2941 69.7334 16.2132 69.7334C16.1446 69.7334 16.1128 69.6918 16.1128 69.6134C16.1128 69.5595 16.1152 69.5203 16.1226 69.4933C16.1765 69.0842 16.2034 68.702 16.2034 68.3517C16.2034 68.2855 16.1961 68.0969 16.1838 67.7858C16.1765 67.7441 16.174 67.6927 16.174 67.6241C16.174 67.5236 16.2157 67.4722 16.2941 67.4722C16.3602 67.4722 16.4092 67.553 16.4362 67.7172C16.6101 68.9274 17.1785 69.5301 18.1413 69.5301C18.5504 69.5301 18.8689 69.4149 19.0943 69.1822C19.3197 68.9495 19.4324 68.6212 19.4324 68.1973C19.4324 67.8201 19.3221 67.4991 19.1041 67.2345C18.8861 66.9675 18.5112 66.7054 17.9796 66.4432C17.3402 66.1272 16.8968 65.821 16.6469 65.5245C16.397 65.2281 16.2745 64.8631 16.2745 64.4245C16.2745 63.866 16.4533 63.4054 16.8135 63.0428C17.1736 62.6802 17.6293 62.4989 18.1805 62.4989C18.4083 62.4989 18.7244 62.5773 19.1286 62.7317C19.2707 62.7856 19.3736 62.8125 19.4422 62.8125C19.5157 62.8125 19.5647 62.7978 19.5892 62.7709C19.6137 62.7439 19.6357 62.6729 19.6553 62.5602C19.67 62.494 19.7068 62.4597 19.7656 62.4597C19.8317 62.4597 19.866 62.5014 19.866 62.5798C19.866 62.6337 19.8636 62.6753 19.8562 62.6998C19.8366 62.8615 19.8268 63.0575 19.8268 63.2853C19.8268 63.6087 19.844 63.8635 19.8783 64.0521L19.8881 64.2138C19.8954 64.2873 19.8636 64.3241 19.7974 64.3241C19.7239 64.3241 19.6725 64.2457 19.6455 64.0913C19.572 63.6945 19.3956 63.3637 19.1212 63.0967C18.8444 62.8321 18.5357 62.6974 18.1927 62.6974C17.8498 62.6974 17.5876 62.8052 17.3916 63.0207C17.1932 63.2363 17.0927 63.5279 17.0927 63.8978C17.0927 64.329 17.2373 64.6744 17.5264 64.9365C17.6881 65.0835 18.0384 65.2942 18.5749 65.5613C19.207 65.8773 19.6602 66.1982 19.9371 66.5241C20.2139 66.8499 20.3511 67.2223 20.3511 67.6388L20.3535 67.6461Z" fill="#3C3734"/>
<path d="M28.4283 64.4074C28.4283 64.4956 28.3866 64.5397 28.3082 64.5397C28.2298 64.5397 28.171 64.4515 28.1367 64.2775C28.122 64.1575 28.1098 64.035 28.0951 63.9149C28.0486 63.6724 27.9702 63.4666 27.8624 63.3C27.7203 63.0771 27.49 62.9374 27.1666 62.8762C26.9584 62.8345 26.7893 62.8198 26.6619 62.8247C26.3459 62.8345 26.1548 62.8394 26.0862 62.8443V68.9396C26.0862 69.1822 26.1499 69.3341 26.2773 69.3953C26.3434 69.4296 26.5321 69.4492 26.8432 69.4566C26.9241 69.4639 26.9633 69.4909 26.9633 69.5423C26.9633 69.5987 26.9094 69.6281 26.8016 69.6281C26.7477 69.6281 26.7011 69.6256 26.6595 69.6182C26.2552 69.6036 25.9711 69.5987 25.802 69.5987C25.5791 69.5987 25.3708 69.6036 25.1773 69.6134C24.9813 69.6232 24.7339 69.6281 24.4301 69.6281C24.2757 69.6281 24.1973 69.6011 24.1973 69.5472C24.1973 69.486 24.3419 69.4517 24.631 69.4468C24.8392 69.4468 24.974 69.4027 25.0352 69.3145C25.0695 69.2606 25.0866 69.1234 25.0866 68.9004V62.8468C24.4203 62.8541 24.0062 62.8884 23.8446 62.9472C23.4207 63.1016 23.1708 63.5156 23.0973 64.1893C23.0777 64.3902 23.0312 64.4931 22.9552 64.4931C22.8744 64.4931 22.8352 64.4221 22.8352 64.28C22.8352 64.2065 22.8377 64.133 22.845 64.057L22.8646 63.8243C22.8842 63.5156 22.9161 63.1089 22.9552 62.6042H23.4085L25.4664 62.6336C25.7089 62.641 26.0862 62.641 26.5958 62.6336L28.2715 62.6042C28.2862 62.9815 28.3278 63.5401 28.4038 64.28C28.4038 64.2996 28.4062 64.3265 28.4136 64.3559C28.4209 64.3853 28.4234 64.4049 28.4234 64.4123L28.4283 64.4074Z" fill="#3C3734"/>
<path d="M37.1255 69.5497C37.1255 69.6061 37.074 69.6355 36.9736 69.6355C36.9075 69.6355 36.8462 69.633 36.7923 69.6257L35.511 69.584L34.2297 69.6257C34.1832 69.633 34.1317 69.6355 34.0778 69.6355C33.9431 69.6355 33.877 69.6012 33.877 69.5301C33.877 69.4517 33.9676 69.415 34.1489 69.415C34.7418 69.4076 35.0357 69.3488 35.0357 69.2361C35.0357 69.2288 35.0284 69.2043 35.0161 69.1578L34.9329 68.8907L34.8814 68.7486C34.8202 68.5404 34.6732 68.0798 34.438 67.3644H32.2796C31.8754 68.4399 31.6745 69.0598 31.6745 69.2214C31.6745 69.317 31.7137 69.3733 31.7946 69.3929C31.8142 69.4003 31.9832 69.4125 32.2992 69.4346C32.4952 69.4419 32.5908 69.4762 32.5908 69.535C32.5908 69.6012 32.5026 69.6355 32.3286 69.6355C32.0199 69.6355 31.6598 69.6208 31.2482 69.5963C31.1478 69.5889 31.0424 69.5865 30.9346 69.5865C30.8269 69.5865 30.724 69.5987 30.6211 69.6208C30.5672 69.633 30.5231 69.6379 30.4888 69.6379C30.3957 69.6379 30.3467 69.6085 30.3467 69.5473C30.3467 69.486 30.452 69.4517 30.6652 69.4468C30.8783 69.4395 31.0302 69.4076 31.1233 69.3513C31.2164 69.2949 31.2923 69.1847 31.3462 69.023C32.211 66.5388 32.9166 64.5446 33.4605 63.038C33.4752 62.9596 33.507 62.8689 33.5536 62.7709L33.5977 62.5872C33.6173 62.5137 33.6442 62.4769 33.6785 62.4769C33.6981 62.4769 33.7153 62.4965 33.73 62.5382C33.8182 62.8003 34.0166 63.3491 34.3253 64.1821C34.5678 64.8337 35.1705 66.4727 36.1308 69.0965C36.1847 69.2484 36.2533 69.3464 36.3366 69.388C36.4199 69.4297 36.5939 69.4542 36.856 69.4615C37.03 69.4689 37.1181 69.5007 37.1181 69.5571L37.1255 69.5497ZM34.3914 67.1317C34.2812 66.8279 34.0999 66.3281 33.8476 65.6275L33.3625 64.2286C33.0783 64.9734 32.7378 65.9411 32.3384 67.1317H34.3914Z" fill="#3C3734"/>
<path d="M45.3203 62.7022C45.3203 62.7561 45.259 62.7831 45.139 62.7831H44.796C44.627 62.7831 44.5265 62.8272 44.4922 62.9154C44.4775 62.9619 44.4726 63.0403 44.4726 63.1481V66.9258C44.4726 67.9058 44.2889 68.6211 43.9239 69.067C43.5564 69.5129 42.966 69.7383 42.1526 69.7383C41.1775 69.7383 40.4916 69.4614 40.0947 68.9102C39.8326 68.5403 39.7003 67.9303 39.7003 67.0826V63.0354C39.6807 62.9154 39.5974 62.8394 39.4553 62.8125C39.4136 62.8051 39.2887 62.8027 39.078 62.8027C38.9628 62.7904 38.9041 62.7561 38.9041 62.7022C38.9041 62.641 38.9506 62.6116 39.0461 62.6116H41.3172C41.4323 62.6116 41.4887 62.6483 41.4887 62.7218C41.4887 62.7684 41.4691 62.7953 41.4274 62.8027C41.3858 62.81 41.2535 62.8174 41.0232 62.8223C40.9301 62.8223 40.864 62.8296 40.8321 62.8419C40.7635 62.8688 40.7268 62.9154 40.7219 62.984C40.7145 63.0109 40.7121 63.202 40.7121 63.5572V67.1659C40.7121 68.0528 40.8542 68.6579 41.1359 68.9788C41.4176 69.3022 41.839 69.4614 42.3976 69.4614C43.4192 69.4614 43.9998 68.8808 44.1345 67.722C44.1541 67.5481 44.1639 66.8107 44.1639 65.5073V63.2142C44.1639 63.126 44.1639 63.0893 44.1639 63.104C44.1639 62.957 44.0929 62.8664 43.9557 62.8321C43.9092 62.8174 43.772 62.8125 43.5466 62.8125C43.4143 62.8125 43.3481 62.7757 43.3481 62.7022C43.3481 62.641 43.3947 62.6116 43.4902 62.6116H45.0949C45.2492 62.6116 45.3276 62.641 45.3276 62.7022H45.3203Z" fill="#3C3734"/>
<path d="M53.4245 69.312C53.4245 69.5938 53.1893 69.7359 52.7189 69.7359C52.1947 69.7359 51.7831 69.5178 51.4867 69.0793C51.3593 68.8907 51.276 68.7094 51.2392 68.5354C51.2025 68.3615 51.1461 67.9156 51.0726 67.2027C51.0334 66.7715 50.8938 66.4677 50.6586 66.2889C50.4234 66.11 50.0388 66.0145 49.5072 66.0023V69.1822C49.5072 69.3169 49.6149 69.4002 49.8305 69.4345C49.8918 69.4419 50.0461 69.4492 50.2936 69.4541C50.3818 69.4541 50.4259 69.4811 50.4259 69.535C50.4259 69.5962 50.3695 69.6256 50.2544 69.6256H47.8829C47.7359 69.6256 47.6599 69.5962 47.6599 69.535C47.6599 69.4884 47.7579 69.4615 47.9515 69.4541C48.2675 69.4468 48.439 69.4076 48.466 69.3341C48.4929 69.2998 48.5076 69.1699 48.5076 68.9397V63.3686C48.5076 63.0991 48.4782 62.9374 48.4219 62.8836C48.3655 62.8297 48.1916 62.8003 47.9025 62.7929C47.7334 62.7929 47.6501 62.7635 47.6501 62.7023C47.6501 62.6361 47.704 62.6018 47.8118 62.6018C47.8314 62.6018 47.8633 62.6043 47.9025 62.6116L49.245 62.641C49.3798 62.641 49.5684 62.6361 49.8109 62.6263C50.0804 62.6092 50.2691 62.5994 50.3769 62.5994C51.0016 62.5994 51.4989 62.739 51.8664 63.0183C52.2339 63.2976 52.4152 63.6749 52.4152 64.1526C52.4152 64.6303 52.2265 65.0125 51.8492 65.3187C51.472 65.625 50.9624 65.8038 50.3156 65.8577C50.2544 65.8651 50.2201 65.8749 50.2152 65.8871C50.2152 65.9141 50.2495 65.9288 50.3156 65.9288C51.0212 66.0512 51.5087 66.2987 51.7733 66.6735C52.0379 67.0483 52.2167 67.7245 52.3025 68.702C52.3564 69.2557 52.545 69.5325 52.8684 69.5325C52.9688 69.5325 53.0203 69.5129 53.0203 69.4713C53.0203 69.4639 53.0178 69.4566 53.0105 69.4517C52.9762 69.3782 52.959 69.3169 52.959 69.2704C52.959 69.1283 53.0325 69.0573 53.182 69.0573C53.3437 69.0573 53.4245 69.1405 53.4245 69.3096V69.312ZM51.3348 64.2555C51.3348 63.2927 50.9183 62.8125 50.0829 62.8125C49.8599 62.8125 49.7105 62.8419 49.6297 62.9032C49.5488 62.9644 49.5096 63.0722 49.5096 63.2265V65.7891C50.1564 65.7965 50.6218 65.6789 50.906 65.4363C51.1902 65.1938 51.3348 64.7994 51.3348 64.2555Z" fill="#3C3734"/>
<path d="M61.9109 69.5497C61.9109 69.6061 61.8619 69.6355 61.759 69.6355C61.6929 69.6355 61.6316 69.633 61.5777 69.6257L60.2964 69.584L59.0151 69.6257C58.9686 69.633 58.9171 69.6355 58.8633 69.6355C58.7285 69.6355 58.6624 69.6012 58.6624 69.5301C58.6624 69.4517 58.753 69.415 58.9343 69.415C59.5272 69.4076 59.8212 69.3488 59.8212 69.2361C59.8212 69.2288 59.8138 69.2043 59.8016 69.1578L59.7183 68.8907L59.6668 68.7486C59.6056 68.5404 59.4586 68.0798 59.2234 67.3644H57.065C56.6608 68.4399 56.4599 69.0598 56.4599 69.2214C56.4599 69.317 56.4991 69.3733 56.58 69.3929C56.5996 69.4003 56.7686 69.4125 57.0846 69.4346C57.2806 69.4419 57.3762 69.4762 57.3762 69.535C57.3762 69.6012 57.288 69.6355 57.114 69.6355C56.8054 69.6355 56.4452 69.6208 56.0336 69.5963C55.9332 69.5889 55.8278 69.5865 55.7201 69.5865C55.6123 69.5865 55.5094 69.5987 55.4065 69.6208C55.3526 69.633 55.3085 69.6379 55.2742 69.6379C55.1811 69.6379 55.1321 69.6085 55.1321 69.5473C55.1321 69.486 55.2374 69.4517 55.4506 69.4468C55.6637 69.4395 55.8156 69.4076 55.9087 69.3513C56.0018 69.2949 56.0777 69.1847 56.1316 69.023C56.9964 66.5388 57.702 64.5446 58.2459 63.038C58.2606 62.9596 58.2924 62.8689 58.339 62.7709L58.3831 62.5872C58.4027 62.5137 58.4296 62.4769 58.4639 62.4769C58.4835 62.4769 58.5007 62.4965 58.5154 62.5382C58.6036 62.8003 58.802 63.3491 59.1107 64.1821C59.3532 64.8337 59.9559 66.4727 60.9162 69.0965C60.9701 69.2484 61.0387 69.3464 61.122 69.388C61.2053 69.4297 61.3793 69.4542 61.6414 69.4615C61.8154 69.4689 61.9035 69.5007 61.9035 69.5571L61.9109 69.5497ZM59.1768 67.1317C59.0666 66.8279 58.8853 66.3281 58.633 65.6275L58.1479 64.2286C57.8637 64.9734 57.5232 65.9411 57.1238 67.1317H59.1768Z" fill="#3C3734"/>
<path d="M69.9636 62.7022C69.9636 62.7708 69.8803 62.8002 69.7113 62.7929H69.307C69.1992 62.7929 69.1356 62.8125 69.116 62.8492C69.0964 62.886 69.0866 62.9987 69.0866 63.1873V68.9911C69.0866 69.3463 69.0817 69.5546 69.0768 69.6158C69.0719 69.6771 69.0498 69.7064 69.0155 69.7064C68.9763 69.7064 68.9273 69.6697 68.8759 69.5938L67.5872 67.7049C66.84 66.6024 65.9311 65.2281 64.8605 63.5793V69.2312C64.8679 69.3194 64.9193 69.3757 65.0124 69.3978C65.108 69.4223 65.3358 69.437 65.6959 69.4443C65.7841 69.4443 65.8282 69.4713 65.8282 69.5252C65.8282 69.5938 65.74 69.6256 65.5661 69.6256C65.5048 69.6256 65.3137 69.6158 64.9904 69.5962C64.8826 69.5889 64.7772 69.5864 64.6768 69.5864C64.6841 69.5864 64.6253 69.5938 64.5004 69.606C64.3754 69.6207 64.1868 69.6256 63.9296 69.6256H63.8291C63.6748 69.6256 63.5964 69.5962 63.5964 69.535C63.5964 69.4737 63.6625 69.4443 63.7973 69.4443C64.1941 69.437 64.4244 69.4125 64.4881 69.3684C64.5518 69.3243 64.5837 69.1822 64.5837 68.9396V63.9566C64.5837 63.398 64.4685 63.0477 64.2407 62.9056C64.1329 62.837 63.9418 62.8051 63.665 62.8051C63.491 62.8051 63.4028 62.7708 63.4028 62.6998C63.4028 62.6361 63.4518 62.6042 63.5547 62.6042C63.6895 62.6042 63.861 62.6116 64.0692 62.6238C64.2774 62.6385 64.3901 62.6434 64.4024 62.6434C64.422 62.6434 64.5175 62.641 64.6841 62.6336C64.9071 62.6336 65.1202 62.6238 65.3309 62.6042L68.8122 67.8004V63.3098C68.8122 63.1016 68.8073 62.9742 68.8024 62.9325C68.7975 62.8909 68.7681 62.8541 68.7215 62.8321C68.675 62.8076 68.5133 62.7978 68.2364 62.7978C67.9939 62.7978 67.8739 62.7684 67.8739 62.7071C67.8739 62.641 67.9547 62.6067 68.1164 62.6067H69.7407C69.8877 62.6067 69.9636 62.641 69.9636 62.7071V62.7022Z" fill="#3C3734"/>
<path d="M77.8743 64.4074C77.8743 64.4956 77.8351 64.5397 77.7543 64.5397C77.6734 64.5397 77.6171 64.4515 77.5828 64.2775C77.5681 64.1575 77.5558 64.035 77.5436 63.9149C77.497 63.6724 77.4186 63.4666 77.3109 63.3C77.1688 63.0771 76.9385 62.9374 76.6151 62.8762C76.4068 62.8345 76.2378 62.8198 76.1104 62.8247C75.7944 62.8345 75.6033 62.8394 75.5347 62.8443V68.9396C75.5347 69.1822 75.5984 69.3341 75.7258 69.3953C75.7919 69.4296 75.9806 69.4492 76.2917 69.4566C76.3725 69.4639 76.4117 69.4909 76.4117 69.5423C76.4117 69.5987 76.3578 69.6281 76.2501 69.6281C76.1962 69.6281 76.1496 69.6256 76.108 69.6182C75.7037 69.6036 75.4171 69.5987 75.2505 69.5987C75.0276 69.5987 74.8193 69.6036 74.6258 69.6134C74.4298 69.6232 74.1824 69.6281 73.8786 69.6281C73.7242 69.6281 73.6458 69.6011 73.6458 69.5472C73.6458 69.486 73.7904 69.4517 74.0795 69.4468C74.2877 69.4468 74.4224 69.4027 74.4837 69.3145C74.518 69.2606 74.5327 69.1234 74.5327 68.9004V62.8468C73.8663 62.8541 73.4523 62.8884 73.2906 62.9472C72.8668 63.1016 72.6169 63.5156 72.5434 64.1893C72.5238 64.3902 72.4772 64.4931 72.4013 64.4931C72.3204 64.4931 72.2812 64.4221 72.2812 64.28C72.2812 64.2065 72.2837 64.133 72.291 64.057L72.3106 63.8243C72.3302 63.5156 72.3596 63.1089 72.4013 62.6042H72.8545L74.9124 62.6336C75.155 62.641 75.5322 62.641 76.0418 62.6336L77.7175 62.6042C77.7298 62.9815 77.7739 63.5401 77.8498 64.28C77.8498 64.2996 77.8523 64.3265 77.8596 64.3559C77.867 64.3853 77.8694 64.4049 77.8694 64.4123L77.8743 64.4074Z" fill="#3C3734"/>
<path d="M85.7165 67.9891C85.7165 68.0161 85.7091 68.1802 85.6969 68.484C85.6822 68.7878 85.6773 69.0769 85.6773 69.3512V69.6844C85.0182 69.6428 83.7125 69.6232 81.7623 69.6232H80.5007C80.3733 69.6232 80.3096 69.5962 80.3096 69.5423C80.3096 69.5056 80.3292 69.486 80.3708 69.4786C80.3904 69.4786 80.5178 69.4688 80.753 69.4517C80.9269 69.4394 81.0347 69.4003 81.0715 69.3415C81.1082 69.2802 81.1278 69.121 81.1278 68.8662V63.1776C81.1278 62.9816 81.0984 62.8664 81.0421 62.8272C80.9857 62.788 80.802 62.7709 80.4933 62.7709C80.3855 62.7709 80.3316 62.7415 80.3316 62.6851C80.3316 62.6288 80.4051 62.5994 80.5546 62.5994H84.832C85.0329 62.5994 85.2191 62.5871 85.3882 62.5602C85.4004 62.8493 85.4323 63.2486 85.4788 63.7606L85.518 64.1943C85.5254 64.2286 85.5278 64.2727 85.5278 64.3265C85.5278 64.3951 85.4984 64.427 85.4372 64.427C85.3637 64.427 85.3098 64.3412 85.2755 64.1722C85.1481 63.5622 84.9398 63.1776 84.6508 63.0134C84.4352 62.8909 83.8692 62.8297 82.9554 62.8297H82.1274V65.7965H82.3699C83.122 65.7965 83.5826 65.7401 83.7468 65.625C83.9109 65.5098 84.0236 65.1767 84.0848 64.6254C84.0971 64.4833 84.1363 64.4123 84.1951 64.4123C84.2686 64.4123 84.3053 64.4735 84.3053 64.5936C84.3053 64.7136 84.298 64.8925 84.2857 65.1277C84.271 65.3628 84.2661 65.5417 84.2661 65.6617C84.2661 66.382 84.2759 66.8769 84.298 67.1464C84.3029 67.215 84.3053 67.2713 84.3053 67.3179C84.3053 67.406 84.2686 67.4501 84.1951 67.4501C84.1485 67.4501 84.1167 67.4207 84.0995 67.3644C84.0824 67.3081 84.053 67.1219 84.0138 66.8034C83.9599 66.4065 83.7958 66.1615 83.5214 66.066C83.4013 66.0268 83.0853 66.0047 82.5782 66.0047H82.1274V69.3856C83.6071 69.3856 84.4744 69.3562 84.7316 69.2949C85.175 69.1945 85.4274 68.7706 85.4886 68.0185C85.5009 67.8519 85.545 67.7686 85.6209 67.7686C85.6871 67.7686 85.7214 67.8397 85.7214 67.9818L85.7165 67.9891Z" fill="#3C3734"/>
<path d="M97.7355 67.6168H92.0444V67.0925H97.7355V67.6168Z" fill="#3C3734"/>
<path d="M109.169 67.7784C109.169 68.4644 108.856 68.9739 108.231 69.3022C107.927 69.4639 107.494 69.5644 106.93 69.606C106.776 69.6134 106.318 69.6158 105.558 69.6158H104.326C104.211 69.6158 104.154 69.5864 104.154 69.5301C104.154 69.4737 104.26 69.4443 104.468 69.4443C104.71 69.4443 104.853 69.4198 104.897 69.3684C104.941 69.3169 104.963 69.165 104.963 68.9102V63.4519C104.963 63.1555 104.948 62.984 104.921 62.9374C104.875 62.8566 104.703 62.8125 104.407 62.8051C104.225 62.8051 104.135 62.7708 104.135 62.6998C104.135 62.6361 104.218 62.6042 104.387 62.6042H104.507C104.581 62.6238 104.649 62.6336 104.708 62.6336H106.675C107.403 62.641 107.944 62.761 108.3 62.9962C108.716 63.2731 108.924 63.6724 108.924 64.1967C108.924 64.6548 108.753 65.0296 108.41 65.3212C108.067 65.6127 107.584 65.7964 106.967 65.8699V65.9312C107.579 65.9728 108.057 66.1002 108.4 66.3158C108.912 66.6392 109.167 67.1267 109.167 67.7784H109.169ZM107.817 64.2971C107.817 63.6503 107.67 63.2216 107.374 63.006C107.219 62.8909 106.925 62.8345 106.496 62.8345C106.381 62.8345 106.202 62.8443 105.962 62.8639V65.7915H106.053L106.609 65.7719C106.994 65.7597 107.29 65.6225 107.503 65.3628C107.716 65.1031 107.822 64.7479 107.822 64.2971H107.817ZM108.108 67.6681C108.108 66.8205 107.765 66.2962 107.08 66.0929C106.879 66.0316 106.504 66.0022 105.96 66.0022V69.0082C105.96 69.2042 105.98 69.3145 106.021 69.3414C106.087 69.388 106.276 69.4125 106.587 69.4125C107.05 69.4125 107.42 69.2655 107.697 68.969C107.974 68.6726 108.111 68.239 108.111 67.6681H108.108Z" fill="#3C3734"/>
<path d="M118.283 62.7022C118.283 62.7561 118.221 62.7831 118.101 62.7831H117.758C117.589 62.7831 117.489 62.8272 117.455 62.9154C117.44 62.9619 117.435 63.0403 117.435 63.1481V66.9258C117.435 67.9058 117.251 68.6211 116.886 69.067C116.519 69.5129 115.928 69.7383 115.115 69.7383C114.14 69.7383 113.454 69.4614 113.057 68.9102C112.795 68.5403 112.663 67.9303 112.663 67.0826V63.0354C112.643 62.9154 112.56 62.8394 112.418 62.8125C112.376 62.8051 112.251 62.8027 112.04 62.8027C111.925 62.7904 111.866 62.7561 111.866 62.7022C111.866 62.641 111.913 62.6116 112.009 62.6116H114.28C114.395 62.6116 114.451 62.6483 114.451 62.7218C114.451 62.7684 114.431 62.7953 114.39 62.8027C114.351 62.81 114.216 62.8174 113.986 62.8223C113.893 62.8223 113.826 62.8296 113.795 62.8419C113.728 62.8688 113.689 62.9154 113.684 62.984C113.677 63.0109 113.674 63.202 113.674 63.5572V67.1659C113.674 68.0528 113.817 68.6579 114.098 68.9788C114.38 69.3022 114.801 69.4614 115.36 69.4614C116.382 69.4614 116.962 68.8808 117.097 67.722C117.117 67.5481 117.126 66.8107 117.126 65.5073V63.2142C117.126 63.126 117.126 63.0893 117.126 63.104C117.126 62.957 117.058 62.8664 116.918 62.8321C116.872 62.8174 116.734 62.8125 116.509 62.8125C116.377 62.8125 116.311 62.7757 116.311 62.7022C116.311 62.641 116.357 62.6116 116.453 62.6116H118.057C118.212 62.6116 118.29 62.641 118.29 62.7022H118.283Z" fill="#3C3734"/>
<path d="M126.061 67.9891C126.061 68.0161 126.054 68.1802 126.041 68.484C126.027 68.7878 126.022 69.0769 126.022 69.3512V69.6844C125.363 69.6428 124.057 69.6232 122.107 69.6232H120.845C120.718 69.6232 120.654 69.5962 120.654 69.5423C120.654 69.5056 120.674 69.486 120.715 69.4786C120.735 69.4786 120.862 69.4688 121.097 69.4517C121.271 69.4394 121.379 69.4003 121.416 69.3415C121.453 69.2802 121.472 69.121 121.472 68.8662V63.1776C121.472 62.9816 121.443 62.8664 121.387 62.8272C121.33 62.788 121.146 62.7709 120.838 62.7709C120.73 62.7709 120.676 62.7415 120.676 62.6851C120.676 62.6288 120.75 62.5994 120.899 62.5994H125.177C125.377 62.5994 125.564 62.5871 125.733 62.5602C125.745 62.8493 125.777 63.2486 125.823 63.7606L125.863 64.1943C125.87 64.2286 125.872 64.2727 125.872 64.3265C125.872 64.3951 125.843 64.427 125.782 64.427C125.708 64.427 125.654 64.3412 125.62 64.1722C125.493 63.5622 125.284 63.1776 124.995 63.0134C124.78 62.8909 124.214 62.8297 123.3 62.8297H122.472V65.7965H122.714C123.467 65.7965 123.927 65.7401 124.091 65.625C124.255 65.5098 124.368 65.1767 124.429 64.6254C124.442 64.4833 124.481 64.4123 124.54 64.4123C124.613 64.4123 124.65 64.4735 124.65 64.5936C124.65 64.7136 124.642 64.8925 124.63 65.1277C124.616 65.3628 124.611 65.5417 124.611 65.6617C124.611 66.382 124.62 66.8769 124.642 67.1464C124.647 67.215 124.65 67.2713 124.65 67.3179C124.65 67.406 124.613 67.4501 124.54 67.4501C124.493 67.4501 124.461 67.4207 124.444 67.3644C124.427 67.3081 124.397 67.1219 124.358 66.8034C124.304 66.4065 124.14 66.1615 123.866 66.066C123.746 66.0268 123.43 66.0047 122.923 66.0047H122.472V69.3856C123.952 69.3856 124.819 69.3562 125.076 69.2949C125.52 69.1945 125.772 68.7706 125.833 68.0185C125.845 67.8519 125.889 67.7686 125.965 67.7686C126.032 67.7686 126.066 67.8397 126.066 67.9818L126.061 67.9891Z" fill="#3C3734"/>
<path d="M134.77 62.7022C134.77 62.7708 134.687 62.8002 134.518 62.7929H134.114C134.006 62.7929 133.942 62.8125 133.923 62.8492C133.903 62.886 133.893 62.9987 133.893 63.1873V68.9911C133.893 69.3463 133.888 69.5546 133.883 69.6158C133.878 69.6771 133.856 69.7064 133.822 69.7064C133.783 69.7064 133.734 69.6697 133.682 69.5938L132.394 67.7049C131.647 66.6024 130.738 65.2281 129.667 63.5793V69.2312C129.675 69.3194 129.726 69.3757 129.819 69.3978C129.915 69.4223 130.142 69.437 130.503 69.4443C130.591 69.4443 130.635 69.4713 130.635 69.5252C130.635 69.5938 130.547 69.6256 130.373 69.6256C130.311 69.6256 130.12 69.6158 129.797 69.5962C129.689 69.5889 129.584 69.5864 129.483 69.5864C129.491 69.5864 129.432 69.5938 129.307 69.606C129.182 69.6207 128.993 69.6256 128.736 69.6256H128.636C128.481 69.6256 128.403 69.5962 128.403 69.535C128.403 69.4737 128.469 69.4443 128.604 69.4443C129.001 69.437 129.231 69.4125 129.295 69.3684C129.358 69.3243 129.39 69.1822 129.39 68.9396V63.9566C129.39 63.398 129.275 63.0477 129.047 62.9056C128.94 62.837 128.748 62.8051 128.472 62.8051C128.298 62.8051 128.209 62.7708 128.209 62.6998C128.209 62.6361 128.258 62.6042 128.361 62.6042C128.496 62.6042 128.668 62.6116 128.876 62.6238C129.084 62.6385 129.197 62.6434 129.209 62.6434C129.229 62.6434 129.324 62.641 129.491 62.6336C129.714 62.6336 129.927 62.6238 130.138 62.6042L133.619 67.8004V63.3098C133.619 63.1016 133.614 62.9742 133.609 62.9325C133.604 62.8909 133.575 62.8541 133.528 62.8321C133.482 62.8076 133.32 62.7978 133.043 62.7978C132.801 62.7978 132.681 62.7684 132.681 62.7071C132.681 62.641 132.761 62.6067 132.923 62.6067H134.547C134.694 62.6067 134.77 62.641 134.77 62.7071V62.7022Z" fill="#3C3734"/>
<path d="M143.761 66.1541C143.761 67.1561 143.46 68.0038 142.857 68.6971C142.255 69.3904 141.517 69.7358 140.643 69.7358C139.714 69.7358 138.933 69.3855 138.301 68.6824C137.669 67.9793 137.353 67.112 137.353 66.0831C137.353 65.0541 137.656 64.1746 138.266 63.5058C138.874 62.837 139.653 62.5013 140.601 62.5013C141.495 62.5013 142.245 62.8517 142.853 63.5499C143.458 64.2506 143.761 65.1178 143.761 66.1541ZM142.632 66.2056C142.632 64.9708 142.38 64.008 141.875 63.3196C141.559 62.8884 141.118 62.6728 140.552 62.6728C139.986 62.6728 139.597 62.8394 139.3 63.1677C138.756 63.7753 138.482 64.7626 138.482 66.1321C138.482 67.2174 138.673 68.0626 139.053 68.6628C139.432 69.263 139.967 69.5643 140.653 69.5643C141.292 69.5643 141.772 69.2802 142.096 68.7142C142.453 68.0871 142.63 67.2492 142.63 66.2031L142.632 66.2056Z" fill="#3C3734"/>
<path d="M150.937 67.6461C150.937 68.2243 150.717 68.7167 150.276 69.1234C149.835 69.5301 149.305 69.7334 148.686 69.7334C148.323 69.7334 147.889 69.6232 147.385 69.4002C147.25 69.339 147.15 69.3096 147.081 69.3096C147 69.3096 146.949 69.4027 146.929 69.5889C146.922 69.6844 146.878 69.7334 146.797 69.7334C146.731 69.7334 146.696 69.6918 146.696 69.6134C146.696 69.5595 146.699 69.5203 146.706 69.4933C146.76 69.0842 146.787 68.702 146.787 68.3517C146.787 68.2855 146.78 68.0969 146.767 67.7858C146.76 67.7441 146.758 67.6927 146.758 67.6241C146.758 67.5236 146.797 67.4722 146.878 67.4722C146.944 67.4722 146.993 67.553 147.02 67.7172C147.194 68.9274 147.762 69.5301 148.725 69.5301C149.134 69.5301 149.452 69.4149 149.678 69.1822C149.903 68.9495 150.016 68.6212 150.016 68.1973C150.016 67.8201 149.906 67.4991 149.688 67.2345C149.47 66.9675 149.092 66.7054 148.563 66.4432C147.924 66.1272 147.48 65.821 147.23 65.5245C146.98 65.2281 146.856 64.8631 146.856 64.4245C146.856 63.866 147.037 63.4054 147.397 63.0428C147.757 62.6802 148.213 62.4989 148.764 62.4989C148.992 62.4989 149.308 62.5773 149.712 62.7317C149.854 62.7856 149.957 62.8125 150.026 62.8125C150.099 62.8125 150.148 62.7978 150.173 62.7709C150.197 62.7439 150.219 62.6729 150.239 62.5602C150.251 62.494 150.29 62.4597 150.349 62.4597C150.415 62.4597 150.45 62.5014 150.45 62.5798C150.45 62.6337 150.447 62.6753 150.44 62.6998C150.42 62.8615 150.41 63.0575 150.41 63.2853C150.41 63.6087 150.427 63.8635 150.459 64.0521L150.469 64.2138C150.476 64.2873 150.445 64.3241 150.378 64.3241C150.305 64.3241 150.254 64.2457 150.227 64.0913C150.153 63.6945 149.977 63.3637 149.702 63.0967C149.425 62.8321 149.117 62.6974 148.774 62.6974C148.431 62.6974 148.171 62.8052 147.97 63.0207C147.772 63.2363 147.674 63.5279 147.674 63.8978C147.674 64.329 147.818 64.6744 148.107 64.9365C148.269 65.0835 148.619 65.2942 149.156 65.5613C149.788 65.8773 150.241 66.1982 150.518 66.5241C150.795 66.8499 150.932 67.2223 150.932 67.6388L150.937 67.6461Z" fill="#3C3734"/>
<path d="M163.672 69.5497C163.672 69.6061 163.62 69.6355 163.52 69.6355C163.451 69.6355 163.392 69.633 163.338 69.6257L162.057 69.584L160.776 69.6257C160.729 69.633 160.678 69.6355 160.624 69.6355C160.489 69.6355 160.423 69.6012 160.423 69.5301C160.423 69.4517 160.514 69.415 160.695 69.415C161.288 69.4076 161.582 69.3488 161.582 69.2361C161.582 69.2288 161.575 69.2043 161.562 69.1578L161.479 68.8907L161.428 68.7486C161.366 68.5404 161.219 68.0798 160.984 67.3644H158.826C158.422 68.4399 158.221 69.0598 158.221 69.2214C158.221 69.317 158.262 69.3733 158.341 69.3929C158.36 69.4003 158.529 69.4125 158.845 69.4346C159.041 69.4419 159.137 69.4762 159.137 69.535C159.137 69.6012 159.049 69.6355 158.875 69.6355C158.566 69.6355 158.206 69.6208 157.794 69.5963C157.694 69.5889 157.589 69.5865 157.481 69.5865C157.373 69.5865 157.268 69.5987 157.167 69.6208C157.113 69.633 157.069 69.6379 157.035 69.6379C156.942 69.6379 156.893 69.6085 156.893 69.5473C156.893 69.486 156.998 69.4517 157.211 69.4468C157.424 69.4395 157.576 69.4076 157.669 69.3513C157.763 69.2949 157.838 69.1847 157.892 69.023C158.757 66.5388 159.463 64.5446 160.007 63.038C160.021 62.9596 160.053 62.8689 160.1 62.7709L160.144 62.5872C160.163 62.5137 160.19 62.4769 160.225 62.4769C160.244 62.4769 160.261 62.4965 160.276 62.5382C160.364 62.8003 160.563 63.3491 160.871 64.1821C161.114 64.8337 161.717 66.4727 162.677 69.0965C162.731 69.2484 162.799 69.3464 162.883 69.388C162.966 69.4297 163.14 69.4542 163.402 69.4615C163.576 69.4689 163.664 69.5007 163.664 69.5571L163.672 69.5497ZM160.938 67.1317C160.827 66.8279 160.646 66.3281 160.394 65.6275L159.909 64.2286C159.624 64.9734 159.284 65.9411 158.885 67.1317H160.938Z" fill="#3C3734"/>
<path d="M168.143 69.5301C168.143 69.5864 168.103 69.6158 168.023 69.6158H167.922C167.881 69.5962 167.425 69.5864 166.55 69.5864C166.381 69.5864 166.215 69.5938 166.046 69.606C165.957 69.6134 165.823 69.6158 165.641 69.6158C165.553 69.6158 165.509 69.5864 165.509 69.5252C165.509 69.4713 165.597 69.4419 165.771 69.4345C166.041 69.4272 166.197 69.3953 166.246 69.339C166.293 69.2826 166.317 69.0866 166.317 68.7559V63.4323C166.317 63.1016 166.3 62.9154 166.266 62.8762C166.224 62.8076 166.038 62.7684 165.705 62.7537C165.575 62.7488 165.511 62.7243 165.511 62.6826C165.511 62.6288 165.553 62.6018 165.634 62.6018H167.008C167.109 62.6018 167.307 62.6043 167.599 62.6116L167.986 62.6018C168.094 62.6018 168.148 62.6312 168.148 62.6876C168.148 62.739 167.998 62.7708 167.699 62.7831C167.528 62.7904 167.425 62.8198 167.388 62.8737C167.351 62.9276 167.332 63.0697 167.332 63.2976V68.6873C167.332 69.0719 167.349 69.2802 167.383 69.312C167.457 69.3855 167.677 69.4296 168.04 69.4443C168.113 69.4443 168.15 69.4737 168.15 69.5301H168.143Z" fill="#3C3734"/>
<path d="M176.418 69.312C176.418 69.5938 176.183 69.7359 175.713 69.7359C175.189 69.7359 174.777 69.5178 174.481 69.0793C174.353 68.8907 174.27 68.7094 174.233 68.5354C174.196 68.3615 174.14 67.9156 174.067 67.2027C174.027 66.7715 173.888 66.4677 173.652 66.2889C173.417 66.11 173.033 66.0145 172.501 66.0023V69.1822C172.501 69.3169 172.609 69.4002 172.824 69.4345C172.886 69.4419 173.04 69.4492 173.287 69.4541C173.376 69.4541 173.42 69.4811 173.42 69.535C173.42 69.5962 173.363 69.6256 173.248 69.6256H170.877C170.73 69.6256 170.654 69.5962 170.654 69.535C170.654 69.4884 170.752 69.4615 170.945 69.4541C171.261 69.4468 171.433 69.4076 171.46 69.3341C171.487 69.2998 171.499 69.1699 171.499 68.9397V63.3686C171.499 63.0991 171.47 62.9374 171.413 62.8836C171.357 62.8297 171.183 62.8003 170.894 62.7929C170.725 62.7929 170.642 62.7635 170.642 62.7023C170.642 62.6361 170.695 62.6018 170.803 62.6018C170.823 62.6018 170.852 62.6043 170.894 62.6116L172.236 62.641C172.371 62.641 172.56 62.6361 172.802 62.6263C173.072 62.6092 173.261 62.5994 173.368 62.5994C173.993 62.5994 174.49 62.739 174.858 63.0183C175.225 63.2976 175.407 63.6749 175.407 64.1526C175.407 64.6303 175.218 65.0125 174.841 65.3187C174.463 65.625 173.954 65.8038 173.307 65.8577C173.246 65.8651 173.214 65.8749 173.207 65.8871C173.207 65.9141 173.241 65.9288 173.307 65.9288C174.013 66.0512 174.5 66.2987 174.765 66.6735C175.029 67.0483 175.206 67.7245 175.294 68.702C175.348 69.2557 175.536 69.5325 175.86 69.5325C175.96 69.5325 176.012 69.5129 176.012 69.4713C176.012 69.4639 176.007 69.4566 176.002 69.4517C175.968 69.3782 175.95 69.3169 175.95 69.2704C175.95 69.1283 176.024 69.0573 176.173 69.0573C176.335 69.0573 176.416 69.1405 176.416 69.3096L176.418 69.312ZM174.329 64.2555C174.329 63.2927 173.912 62.8125 173.077 62.8125C172.854 62.8125 172.704 62.8419 172.624 62.9032C172.543 62.9644 172.504 63.0722 172.504 63.2265V65.7891C173.15 65.7965 173.616 65.6789 173.9 65.4363C174.184 65.1938 174.329 64.7994 174.329 64.2555Z" fill="#3C3734"/>
<path d="M184.047 67.9891C184.047 68.0161 184.04 68.1802 184.028 68.484C184.013 68.7878 184.008 69.0769 184.008 69.3512V69.6844C183.349 69.6428 182.043 69.6232 180.093 69.6232H178.831C178.704 69.6232 178.64 69.5962 178.64 69.5423C178.64 69.5056 178.66 69.486 178.702 69.4786C178.721 69.4786 178.849 69.4688 179.084 69.4517C179.258 69.4394 179.366 69.4003 179.402 69.3415C179.439 69.2802 179.459 69.121 179.459 68.8662V63.1776C179.459 62.9816 179.429 62.8664 179.373 62.8272C179.317 62.788 179.133 62.7709 178.824 62.7709C178.716 62.7709 178.662 62.7415 178.662 62.6851C178.662 62.6288 178.736 62.5994 178.885 62.5994H183.163C183.364 62.5994 183.55 62.5871 183.719 62.5602C183.731 62.8493 183.763 63.2486 183.81 63.7606L183.849 64.1943C183.856 64.2286 183.859 64.2727 183.859 64.3265C183.859 64.3951 183.829 64.427 183.768 64.427C183.694 64.427 183.641 64.3412 183.606 64.1722C183.479 63.5622 183.271 63.1776 182.982 63.0134C182.766 62.8909 182.2 62.8297 181.286 62.8297H180.458V65.7965H180.701C181.453 65.7965 181.913 65.7401 182.078 65.625C182.242 65.5098 182.354 65.1767 182.416 64.6254C182.428 64.4833 182.467 64.4123 182.526 64.4123C182.599 64.4123 182.636 64.4735 182.636 64.5936C182.636 64.7136 182.629 64.8925 182.617 65.1277C182.602 65.3628 182.597 65.5417 182.597 65.6617C182.597 66.382 182.607 66.8769 182.629 67.1464C182.634 67.215 182.636 67.2713 182.636 67.3179C182.636 67.406 182.599 67.4501 182.526 67.4501C182.479 67.4501 182.448 67.4207 182.43 67.3644C182.413 67.3081 182.384 67.1219 182.345 66.8034C182.291 66.4065 182.127 66.1615 181.852 66.066C181.732 66.0268 181.416 66.0047 180.909 66.0047H180.458V69.3856C181.938 69.3856 182.805 69.3562 183.062 69.2949C183.506 69.1945 183.758 68.7706 183.819 68.0185C183.832 67.8519 183.876 67.7686 183.952 67.7686C184.018 67.7686 184.052 67.8397 184.052 67.9818L184.047 67.9891Z" fill="#3C3734"/>
<path d="M191 67.6461C191 68.2243 190.78 68.7167 190.339 69.1234C189.898 69.5301 189.368 69.7334 188.749 69.7334C188.386 69.7334 187.952 69.6232 187.448 69.4002C187.313 69.339 187.213 69.3096 187.144 69.3096C187.063 69.3096 187.012 69.4027 186.992 69.5889C186.985 69.6844 186.941 69.7334 186.86 69.7334C186.794 69.7334 186.759 69.6918 186.759 69.6134C186.759 69.5595 186.762 69.5203 186.769 69.4933C186.823 69.0842 186.85 68.702 186.85 68.3517C186.85 68.2855 186.843 68.0969 186.83 67.7858C186.823 67.7441 186.821 67.6927 186.821 67.6241C186.821 67.5236 186.86 67.4722 186.941 67.4722C187.007 67.4722 187.056 67.553 187.083 67.7172C187.257 68.9274 187.825 69.5301 188.788 69.5301C189.197 69.5301 189.515 69.4149 189.741 69.1822C189.966 68.9495 190.079 68.6212 190.079 68.1973C190.079 67.8201 189.969 67.4991 189.751 67.2345C189.533 66.9675 189.155 66.7054 188.626 66.4432C187.987 66.1272 187.543 65.821 187.293 65.5245C187.043 65.2281 186.919 64.8631 186.919 64.4245C186.919 63.866 187.1 63.4054 187.46 63.0428C187.82 62.6802 188.276 62.4989 188.827 62.4989C189.055 62.4989 189.371 62.5773 189.775 62.7317C189.917 62.7856 190.02 62.8125 190.089 62.8125C190.162 62.8125 190.211 62.7978 190.236 62.7709C190.26 62.7439 190.282 62.6729 190.302 62.5602C190.314 62.494 190.353 62.4597 190.412 62.4597C190.478 62.4597 190.512 62.5014 190.512 62.5798C190.512 62.6337 190.51 62.6753 190.503 62.6998C190.483 62.8615 190.473 63.0575 190.473 63.2853C190.473 63.6087 190.49 63.8635 190.522 64.0521L190.532 64.2138C190.539 64.2873 190.508 64.3241 190.441 64.3241C190.368 64.3241 190.316 64.2457 190.29 64.0913C190.216 63.6945 190.04 63.3637 189.765 63.0967C189.488 62.8321 189.18 62.6974 188.837 62.6974C188.494 62.6974 188.234 62.8052 188.033 63.0207C187.835 63.2363 187.737 63.5279 187.737 63.8978C187.737 64.329 187.881 64.6744 188.17 64.9365C188.332 65.0835 188.682 65.2942 189.219 65.5613C189.851 65.8773 190.304 66.1982 190.581 66.5241C190.858 66.8499 190.995 67.2223 190.995 67.6388L191 67.6461Z" fill="#3C3734"/>
<defs>
<clipPath id="clip0_2_671">
<rect width="191" height="51.1446" fill="white"/>
</clipPath>
</defs>
</svg>
