<svg width="28" height="28" viewBox="0 0 28 28" fill="none" xmlns="http://www.w3.org/2000/svg">
<path d="M20.4181 16.0377L16.9181 14.2877C16.8148 14.2362 16.6997 14.213 16.5844 14.2203C16.4692 14.2276 16.358 14.2652 16.2619 14.3292L14.5469 15.4722C13.6787 15.0277 12.9723 14.3213 12.5278 13.4531L13.6719 11.7392C13.7359 11.6432 13.7735 11.5319 13.7808 11.4167C13.7881 11.3015 13.7649 11.1863 13.7135 11.083L11.9635 7.58297C11.909 7.47347 11.8251 7.38135 11.7212 7.31699C11.6172 7.25264 11.4973 7.21861 11.375 7.21875C10.2727 7.21875 9.21556 7.65664 8.43611 8.43609C7.65666 9.21554 7.21877 10.2727 7.21877 11.375C7.22167 13.8688 8.21361 16.2596 9.977 18.023C11.7404 19.7864 14.1312 20.7784 16.625 20.7812C17.7273 20.7812 18.7845 20.3434 19.5639 19.5639C20.3434 18.7845 20.7813 17.7273 20.7813 16.625C20.7813 16.503 20.7474 16.3835 20.6832 16.2797C20.6191 16.176 20.5273 16.0921 20.4181 16.0377ZM16.625 19.4688C14.4792 19.4661 12.4221 18.6126 10.9048 17.0953C9.38745 15.578 8.53388 13.5208 8.53127 11.375C8.53134 10.6887 8.77961 10.0255 9.2303 9.50789C9.68098 8.99026 10.3037 8.6531 10.9835 8.55859L12.3681 11.328L11.2317 13.032C11.172 13.1219 11.1354 13.2251 11.1251 13.3325C11.1148 13.4399 11.1311 13.5482 11.1727 13.6478C11.7761 15.0825 12.9175 16.2239 14.3522 16.8273C14.4518 16.8689 14.5601 16.8852 14.6675 16.8749C14.7749 16.8646 14.8781 16.828 14.968 16.7683L16.6721 15.6319L19.4414 17.0166C19.3469 17.6964 19.0098 18.319 18.4921 18.7697C17.9745 19.2204 17.3114 19.4687 16.625 19.4688ZM14 2.84375C12.066 2.84334 10.1652 3.3457 8.4839 4.30154C6.80263 5.25738 5.39872 6.63386 4.4099 8.29594C3.42107 9.95802 2.88131 11.8486 2.84356 13.7822C2.8058 15.7158 3.27136 17.6261 4.19455 19.3255L2.92362 23.1394C2.83364 23.4092 2.82058 23.6987 2.88591 23.9755C2.95123 24.2523 3.09236 24.5055 3.29346 24.7066C3.49457 24.9077 3.74771 25.0488 4.02452 25.1141C4.30132 25.1794 4.59085 25.1664 4.86065 25.0764L8.67455 23.8055C10.1675 24.6157 11.8257 25.0742 13.5228 25.1462C15.2199 25.2182 16.911 24.9017 18.4673 24.2209C20.0235 23.5401 21.4037 22.5129 22.5026 21.2177C23.6015 19.9224 24.3902 18.3934 24.8085 16.7471C25.2267 15.1007 25.2635 13.3806 24.9161 11.718C24.5686 10.0553 23.8461 8.49385 22.8035 7.15279C21.761 5.81174 20.426 4.72646 18.9003 3.97969C17.3747 3.23293 15.6986 2.84441 14 2.84375ZM14 23.8438C12.2696 23.8442 10.5697 23.3884 9.07159 22.5225C8.97171 22.4651 8.85866 22.4346 8.74346 22.4339C8.67285 22.4343 8.60273 22.4458 8.53565 22.4678L4.44612 23.8306C4.40757 23.8435 4.36621 23.8453 4.32667 23.836C4.28713 23.8267 4.25096 23.8065 4.22223 23.7778C4.1935 23.7491 4.17334 23.7129 4.16401 23.6734C4.15468 23.6338 4.15654 23.5924 4.1694 23.5539L5.53221 19.4688C5.5617 19.3805 5.57207 19.2869 5.56264 19.1944C5.55321 19.1018 5.5242 19.0122 5.47752 18.9317C4.39171 17.056 3.95526 14.8744 4.23589 12.7254C4.51652 10.5764 5.49853 8.57999 7.02959 7.04603C8.56064 5.51206 10.5551 4.52626 12.7036 4.24156C14.8522 3.95685 17.0346 4.38916 18.9123 5.47141C20.79 6.55366 22.2581 8.22536 23.0888 10.2271C23.9195 12.2289 24.0663 14.4489 23.5065 16.5426C22.9467 18.6364 21.7115 20.4869 19.9927 21.807C18.2738 23.1271 16.1673 23.843 14 23.8438Z" fill="#9A8970"/>
</svg>
